<svg width="311" height="234" viewBox="0 0 311 234" fill="none" xmlns="http://www.w3.org/2000/svg">
<path d="M82.5 209C76.5806 197.337 65.6465 169.676 93.0524 124.566C120.458 79.4557 189.221 84.6961 216.627 102.329C244.033 119.963 257.417 142.765 260.25 166.772C263.011 190.779 251 209 251 209H82.5Z" fill="#75BF7A"/>
<path d="M284.823 137.738H253.239C251.256 137.738 249.698 136.18 249.698 134.197V118.405C249.698 116.422 251.256 114.864 253.239 114.864H284.823C286.806 114.864 288.364 116.422 288.364 118.405V134.197C288.364 136.18 286.735 137.738 284.823 137.738Z" fill="#75BF7A"/>
<path d="M269.031 146.732L273.989 134.834H264.003L269.031 146.732Z" fill="#75BF7A"/>
<path d="M268.89 122.441H277.954V123.716L282.345 121.167L277.954 118.617V119.963H268.89V122.441Z" fill="#263238"/>
<path d="M282.345 127.611H273.28V126.265L268.89 128.885L273.28 131.435V130.089H282.345V127.611Z" fill="white"/>
<path d="M263.295 129.948L262.87 130.089C262.87 130.089 261.525 128.531 260.817 126.903C260.108 125.203 260.108 123.22 260.108 123.22L260.392 123.079L258.48 118.476C258.126 118.759 257.842 119.113 257.559 119.538C256.497 121.379 256.568 124.141 257.701 126.903C258.763 129.665 259.967 132.072 262.091 133.63C263.366 134.551 264.428 134.693 265.278 134.551L263.295 129.948Z" fill="#263238"/>
<path d="M264.712 129.382L264.145 129.594L266.128 134.268C266.34 134.197 266.553 134.126 266.694 133.985C267.19 133.701 267.403 133.135 267.19 132.568L266.199 130.019C265.915 129.452 265.278 129.169 264.712 129.382Z" fill="#263238"/>
<path d="M260.038 117.697C259.825 117.767 259.542 117.909 259.259 118.051L261.242 122.724L261.879 122.441C262.446 122.229 262.729 121.521 262.516 120.954L261.454 118.334C261.242 117.767 260.604 117.484 260.038 117.697Z" fill="#263238"/>
<path d="M82.7843 212.732V159.974C82.7843 159.974 82.2178 145.74 89.6535 141.632C97.16 137.525 128.602 139.72 128.602 139.72V212.661H82.7843V212.732Z" fill="#75BF7A"/>
<path d="M138.517 90.3618C138.517 90.3618 136.605 106.366 135.896 107.641C135.188 108.986 135.188 108.986 135.188 108.986L131.506 111.465C131.506 111.465 138.517 121.45 147.156 123.008C155.796 124.637 155.088 119.467 155.088 119.467L153.742 116.705L155.513 101.48C155.513 101.551 139.791 94.3275 138.517 90.3618Z" fill="#FF9D8C"/>
<path d="M126.903 112.811L132.639 110.332C132.639 110.332 136.321 116.351 144.819 119.821C153.317 123.291 153.459 121.309 153.884 119.821C154.309 118.334 153.742 116.776 153.742 116.776L154.38 111.678L157.779 112.811L169.534 208.2L139.225 209.687L126.903 112.811Z" fill="white"/>
<path d="M154.946 111.748C154.946 111.748 156.999 116.493 158.912 127.611C160.824 138.729 162.594 157.495 163.019 170.384C163.444 183.272 163.727 212.732 163.727 212.732C163.727 212.732 201.543 212.732 201.968 212.732C202.393 212.732 205.013 198.215 205.013 198.215C205.013 198.215 188.3 183.91 187.45 181.573C186.884 180.015 187.167 151.051 184.689 137.738C182.21 124.424 178.952 121.733 172.225 118.405C165.214 114.935 154.946 111.748 154.946 111.748Z" fill="#263238"/>
<path d="M174.845 195.948C174.633 195.948 174.491 195.807 174.491 195.594C174.491 194.532 174.279 179.661 174.137 165.285C173.925 150.909 173.783 136.038 173.783 134.976C173.783 134.763 173.925 134.622 174.137 134.622C174.35 134.622 174.491 134.763 174.491 134.976C174.491 136.038 174.704 150.909 174.845 165.285C175.058 179.661 175.2 194.532 175.2 195.594C175.2 195.807 175.058 195.948 174.845 195.948Z" fill="#263238"/>
<path d="M98.647 192.337L98.3638 212.732H142.907C142.907 212.732 144.819 195.453 144.111 193.824C143.332 192.195 98.647 192.337 98.647 192.337Z" fill="#263238"/>
<path d="M148.219 107.216C150.06 108.703 152.538 109.836 154.45 110.544L155.513 101.48C155.513 101.48 143.757 96.0976 139.721 92.061C140.57 96.6641 142.624 102.754 148.219 107.216Z" fill="#263238"/>
<path d="M169.251 60.6184C169.251 60.6184 172.296 65.8588 172.933 72.3739C173.5 78.8182 172.933 95.3892 167.693 102.4C162.452 109.411 151.405 107.357 146.448 103.108C141.845 99.2133 137.383 94.8935 136.18 86.3956C134.976 77.8976 138.658 61.7515 149.068 58.4231C159.478 55.0948 169.251 60.6184 169.251 60.6184Z" fill="#FF9D8C"/>
<path d="M182.493 203.526C182.493 203.526 181.998 203.526 181.219 203.526C181.006 203.526 180.794 203.526 180.652 203.526C179.873 203.526 178.953 203.455 178.032 203.455C177.82 203.455 177.607 203.455 177.395 203.455C176.474 203.455 175.695 203.526 174.916 203.526C174.774 203.526 174.562 203.526 174.35 203.526C174.279 203.526 174.208 203.526 174.137 203.526C173.712 203.455 173.641 203.384 173.146 203.172C172.579 202.888 164.506 201.118 157.92 201.118C151.405 201.118 145.527 201.614 144.536 200.764C143.544 199.985 142.978 191.699 148.572 191.204L155.442 193.824C155.442 193.824 171.092 191.983 176.899 196.232C182.635 200.41 182.493 203.526 182.493 203.526Z" fill="#FF9D8C"/>
<path d="M174.916 203.455C174.774 203.455 174.562 203.455 174.349 203.455C174.208 203.243 173.925 202.818 173.783 202.676C172.013 200.835 167.764 199.702 166.206 199.348C166.064 199.277 165.993 199.206 165.993 198.994C165.993 198.852 166.135 198.781 166.347 198.781C168.613 199.348 173.429 200.693 174.774 203.03C174.704 203.101 174.845 203.313 174.916 203.455Z" fill="#263238"/>
<path d="M177.961 203.455C177.749 203.455 177.536 203.455 177.324 203.455C175.412 199.914 172.225 198.923 168.33 197.648L168.118 197.577C167.976 197.506 167.905 197.365 167.976 197.223C168.047 197.081 168.188 197.011 168.33 197.081L168.543 197.152C172.65 198.427 175.978 199.489 177.961 203.455Z" fill="#263238"/>
<path d="M181.219 203.526C181.006 203.526 180.794 203.526 180.581 203.526C179.377 201.047 175.553 196.94 170.384 195.948C170.242 195.948 170.171 195.807 170.171 195.665C170.171 195.523 170.313 195.453 170.455 195.453C175.766 196.444 180.015 200.764 181.219 203.526Z" fill="#263238"/>
<path d="M139.65 79.1724C139.65 79.1724 142.907 77.6145 145.174 73.2947C147.44 68.9749 147.156 65.08 147.156 65.08C147.156 65.08 151.264 64.4426 157.425 66.2839C163.586 68.1251 170.88 70.6037 177.041 67.0628C183.202 63.522 183.202 57.9276 180.157 55.5906C176.758 52.9704 170.101 54.5992 170.101 54.5992C170.101 54.5992 172.65 52.1206 171.305 50.6335C169.888 49.1463 164.86 51.0584 164.86 51.0584C164.86 51.0584 158.699 46.1721 147.086 46.7386C135.472 47.3051 129.877 55.449 129.24 64.5135C128.603 73.5779 131.86 82.7132 131.86 82.7132L139.65 79.1724Z" fill="#263238"/>
<path d="M163.302 81.3677C162.665 82.9965 162.665 84.9086 162.523 86.6081C162.382 87.9537 162.169 89.5116 163.373 90.4322C163.94 90.8571 166.772 92.061 165.285 92.9816C164.719 93.3357 163.798 93.2649 163.232 93.1941C162.807 93.1941 162.382 93.1232 161.957 93.1232C161.532 93.1232 161.036 92.9816 160.611 92.9816C160.328 92.9816 160.257 93.3357 160.47 93.4773C161.178 93.973 162.311 94.1147 163.161 94.1147C164.011 94.1147 164.577 94.1147 165.356 93.6898C165.852 93.4773 166.277 93.1232 166.347 92.5567C166.418 91.9194 165.923 91.3528 165.498 90.9988C164.931 90.5739 164.294 90.3614 163.727 90.0073C162.948 89.4408 163.019 88.5202 163.09 87.6704C163.232 85.6167 163.727 83.563 163.869 81.4386C163.869 81.1553 163.373 81.1553 163.302 81.3677Z" fill="#263238"/>
<path d="M169.322 86.2542C169.11 87.4581 168.189 88.3787 167.339 88.2371C166.418 88.0954 165.923 86.9624 166.135 85.6877C166.348 84.4838 167.268 83.5632 168.118 83.7048C168.968 83.9173 169.534 85.0503 169.322 86.2542Z" fill="#263238"/>
<path d="M158.062 85.2625C157.849 86.608 156.929 87.5286 155.937 87.387C154.946 87.2454 154.379 86.0415 154.592 84.696C154.804 83.3505 155.725 82.4299 156.716 82.5715C157.708 82.7131 158.274 83.917 158.062 85.2625Z" fill="#263238"/>
<path d="M166.701 81.1556C167.409 81.2973 168.047 81.1556 168.755 81.2265C168.897 81.2265 169.109 81.2973 169.251 81.2973C169.392 81.2973 169.038 81.2973 169.18 81.2973H169.251C169.321 81.2973 169.392 81.2973 169.534 81.3681C169.676 81.4389 169.817 81.4389 169.959 81.5097C170.1 81.5097 170.242 81.5805 170.384 81.5805C170.455 81.5805 170.525 81.5805 170.596 81.5805C170.525 81.5805 170.525 81.5805 170.455 81.5805H170.738C171.163 81.5097 171.375 81.014 171.234 80.6599C171.234 80.5183 171.163 80.4475 171.092 80.3767C171.092 80.3059 171.021 80.3059 171.021 80.235L171.092 80.3059C171.092 80.235 171.021 80.235 171.021 80.1642C170.95 80.0934 170.95 80.0226 170.879 80.0226C170.809 79.9518 170.738 79.9518 170.738 79.881C170.525 79.7393 170.313 79.6685 170.1 79.5977C169.676 79.5269 169.251 79.4561 168.826 79.4561C168.401 79.4561 167.976 79.5269 167.551 79.5269C167.197 79.5977 166.772 79.6685 166.489 79.9518C166.276 80.0934 166.135 80.3767 166.135 80.6599C166.206 80.8724 166.418 81.1556 166.701 81.1556Z" fill="#263238"/>
<path d="M158.841 79.2433C158.77 79.1725 158.628 79.1724 158.557 79.1016C158.487 79.0308 158.274 78.96 158.416 79.0308C158.345 79.0308 158.274 78.96 158.203 78.96C157.92 78.8184 157.637 78.7476 157.354 78.6767C156.716 78.5351 156.008 78.4643 155.3 78.5351C154.592 78.6059 153.884 78.8184 153.246 79.1725C153.175 79.2433 153.034 79.3141 152.963 79.3849C152.892 79.4557 152.892 79.5265 152.821 79.5973C152.821 79.5973 152.821 79.5265 152.892 79.5265C152.68 79.6682 152.609 79.8806 152.609 80.0931C152.609 80.3055 152.751 80.518 152.892 80.5888C153.105 80.7304 153.388 80.6596 153.6 80.5888C153.459 80.5888 153.388 80.5888 153.246 80.5888C153.459 80.5888 153.6 80.6596 153.813 80.5888C153.813 80.5888 154.025 80.518 153.884 80.5888C153.742 80.5888 154.096 80.5888 154.096 80.5888C154.167 80.5888 154.379 80.5888 154.096 80.5888C154.167 80.5888 154.167 80.5888 154.238 80.5888C154.379 80.5888 154.45 80.5888 154.592 80.518C155.087 80.4471 155.583 80.4471 156.008 80.4471C156.433 80.4471 156.929 80.4471 157.354 80.4471C157.566 80.4471 157.708 80.4471 157.92 80.4471C157.991 80.4471 158.062 80.4471 157.92 80.4471C157.991 80.4471 157.991 80.4471 158.062 80.4471C158.133 80.4471 158.203 80.518 158.274 80.518C158.557 80.6596 158.982 80.3763 159.053 80.0931C159.266 79.739 159.195 79.3849 158.841 79.2433Z" fill="#263238"/>
<path d="M162.381 99.5674C163.019 98.2219 164.294 97.2305 165.71 96.5931C164.506 96.4515 158.699 95.9558 157.212 96.7348C155.583 97.6554 157.495 101.409 160.894 101.621C161.248 101.621 161.602 101.621 161.886 101.55C161.886 100.913 162.027 100.205 162.381 99.5674Z" fill="#263238"/>
<path d="M135.542 91.7072C135.542 91.7072 136.109 93.9733 139.508 96.5935C142.907 99.2137 147.794 101.126 147.794 101.126L148.219 99.4261C148.219 99.4261 143.191 97.2308 140.854 94.8231C138.517 92.4153 138.233 91.0698 138.233 91.0698L135.542 91.7072Z" fill="#263238"/>
<path d="M148.785 98.2221C151.476 98.0804 153.034 100.205 153.175 101.621C153.388 103.038 152.042 104.596 148.997 103.179C145.244 101.48 146.023 98.3637 148.785 98.2221Z" fill="#263238"/>
<path d="M137.667 74.9234C137.667 74.9234 138.871 66.4963 144.465 60.7602C155.229 49.8545 164.365 50.4918 164.365 50.4918C164.365 50.4918 164.294 48.9339 160.824 47.8008C157.566 46.6678 156.15 47.3051 156.15 47.3051C156.15 47.3051 147.298 48.0133 139.791 56.2988C132.285 64.5843 131.506 75.1359 131.506 75.1359L137.667 74.9234Z" fill="#263238"/>
<path d="M136.888 73.9323C129.806 72.7284 125.911 78.2521 125.628 83.8466C125.345 89.4411 129.381 93.6192 134.763 93.1943C146.944 92.2029 145.527 75.3486 136.888 73.9323Z" fill="white"/>
<path d="M133.347 87.7414C131.506 87.7414 129.877 86.8208 129.027 85.192C128.036 83.4216 128.177 81.2263 129.239 79.6684C129.31 79.5267 129.452 79.5267 129.594 79.5976C129.735 79.6684 129.735 79.8808 129.664 79.9516C128.673 81.368 128.602 83.3508 129.452 84.9088C130.302 86.3959 131.718 87.2457 133.488 87.2457C135.117 87.1749 136.463 86.4667 137.313 85.192C138.304 83.7049 138.516 81.6512 137.879 80.0224C137.242 78.3229 135.542 77.1898 133.913 77.4022C133.772 77.4022 133.63 77.3314 133.63 77.1898C133.63 77.0482 133.701 76.9065 133.843 76.9065C135.684 76.6941 137.667 77.898 138.375 79.81C139.083 81.6512 138.8 83.8465 137.737 85.4753C136.746 86.8916 135.259 87.7414 133.488 87.8122C133.488 87.7414 133.418 87.7414 133.347 87.7414Z" fill="#263238"/>
<path d="M128.248 110.756C128.248 110.756 106.862 115.997 99.3553 124.495C91.8487 132.993 88.3787 174.916 88.2371 182.635C88.0955 190.425 93.4775 193.611 96.7351 195.807C99.9926 198.002 114.156 201.968 125.628 202.534C137.029 203.101 147.864 202.534 147.864 202.534C147.864 202.534 147.794 200.056 149.564 196.373C151.193 192.974 153.246 192.266 153.246 192.266L143.403 188.725C143.403 188.725 141.703 157.92 139.012 142.978C136.038 125.982 128.248 110.756 128.248 110.756Z" fill="#263238"/>
<path d="M163.727 183.91C163.656 183.91 163.656 183.91 163.586 183.91C163.373 183.839 163.302 183.627 163.373 183.414C165.356 178.882 167.481 170.03 168.614 163.798L168.684 163.302C169.038 161.461 169.463 159.195 168.614 157.637C168.189 156.858 167.126 155.088 166.206 153.388C165.214 151.618 164.223 149.989 164.011 149.493C163.515 148.502 165.144 145.952 167.481 142.482C168.118 141.562 168.684 140.712 168.968 140.146C169.817 138.729 169.251 137.384 168.614 135.826L168.401 135.33C167.835 133.914 167.126 132.427 166.489 131.081C166.206 130.515 165.993 129.948 165.71 129.381C165.356 128.603 165.002 127.824 164.648 127.045C162.594 122.441 160.47 117.626 157.708 113.023C157.637 112.881 157.637 112.669 157.85 112.527C157.991 112.456 158.204 112.456 158.345 112.669C161.107 117.343 163.232 122.087 165.356 126.761C165.71 127.54 166.064 128.319 166.418 129.098C166.702 129.665 166.914 130.231 167.197 130.798C167.835 132.214 168.543 133.63 169.109 135.118L169.322 135.613C169.959 137.171 170.667 138.8 169.676 140.57C169.322 141.137 168.755 141.987 168.118 142.907C166.914 144.749 164.365 148.573 164.719 149.21C165.002 149.706 165.923 151.335 166.914 153.034C167.905 154.734 168.897 156.433 169.322 157.283C170.313 159.053 169.888 161.532 169.463 163.444L169.393 163.94C168.968 166.206 166.702 177.82 164.081 183.698C163.94 183.839 163.869 183.91 163.727 183.91Z" fill="#263238"/>
<path d="M142.836 185.185C142.766 185.185 142.624 185.185 142.553 185.114C140.853 183.414 132.851 169.534 132.285 166.914C131.931 165.498 132.78 161.886 133.559 158.345C134.197 155.654 134.834 152.822 134.622 152.043C134.338 150.909 132.285 149.21 130.302 147.581C127.894 145.598 125.416 143.615 124.92 141.774C124.353 139.721 124.849 126.69 125.132 118.122C125.274 115.006 125.345 112.598 125.345 111.748C125.345 111.536 125.486 111.394 125.699 111.394C125.911 111.394 126.053 111.536 126.053 111.748C126.053 112.598 125.982 115.076 125.84 118.192C125.557 126.195 125.061 139.65 125.557 141.633C125.982 143.261 128.461 145.244 130.656 147.085C132.851 148.856 134.905 150.555 135.188 151.901C135.401 152.822 134.834 155.442 134.126 158.487C133.418 161.744 132.568 165.498 132.851 166.772C133.418 169.322 141.349 182.989 142.978 184.618C143.12 184.76 143.12 184.972 142.978 185.114C142.978 185.114 142.907 185.185 142.836 185.185Z" fill="#263238"/>
<path d="M114.014 179.094C113.802 179.094 113.66 178.882 113.66 178.669C113.943 176.828 117.98 140.145 118.192 137.313C118.192 137.1 118.405 136.958 118.546 136.958C118.759 136.958 118.901 137.171 118.901 137.313C118.688 140.145 114.652 176.828 114.368 178.669C114.368 178.953 114.227 179.094 114.014 179.094Z" fill="#263238"/>
<path d="M143.191 189.08C143.12 189.08 143.12 189.08 143.049 189.08C142.128 188.725 138.163 187.38 133.135 185.68C122.937 182.281 109.057 177.537 106.366 176.191C106.225 176.12 106.154 175.908 106.225 175.695C106.295 175.554 106.508 175.483 106.72 175.554C109.34 176.899 123.787 181.785 133.347 185.043C138.375 186.743 142.412 188.088 143.332 188.442C143.545 188.513 143.616 188.725 143.545 188.938C143.474 189.009 143.332 189.08 143.191 189.08Z" fill="#263238"/>
<path d="M138.304 203.668C129.381 203.668 112.031 202.039 98.8596 197.365C98.6472 197.294 98.5763 197.082 98.6472 196.94C98.718 196.728 98.9304 196.657 99.0721 196.728C115.714 202.605 139.012 203.597 143.332 202.676C143.545 202.605 143.686 202.747 143.757 202.96C143.828 203.172 143.686 203.314 143.474 203.384C142.553 203.526 140.712 203.668 138.304 203.668Z" fill="#263238"/>
<path d="M35.9038 115.714C38.6657 118.192 42.2065 119.75 44.6142 122.583C45.6057 123.716 46.4555 124.849 47.3052 126.053C47.9426 126.903 49.713 128.319 49.9963 129.381C50.1379 129.877 50.0671 129.24 49.9963 128.744V128.673C49.7838 126.549 49.5714 124.353 49.5005 122.158C49.4297 119.963 49.5714 117.838 49.4297 115.643C49.2173 112.598 48.2967 109.623 45.8181 107.711C44.6142 106.791 43.0563 106.224 41.9232 105.162C40.861 104.171 41.2859 103.038 41.9232 101.975C42.4897 100.913 43.1979 99.9217 43.4812 98.7886C43.7644 97.4431 43.2687 96.0268 42.5606 94.8937C41.1442 92.486 37.8867 89.7241 34.8416 90.0782C32.2922 90.3615 32.0089 93.3358 32.0798 95.3894C32.0798 97.3723 32.2922 99.3551 32.363 101.338C32.363 103.392 32.0089 105.375 32.0089 107.428C31.7257 110.827 33.3544 113.448 35.9038 115.714Z" fill="#75BF7A"/>
<path d="M61.6809 147.439C62.4599 145.598 63.3097 143.899 64.4427 142.199C65.9299 139.862 67.6295 137.667 68.6209 135.046C69.6123 132.426 69.4707 129.594 69.6123 126.832C69.6831 124.778 70.3205 122.795 70.108 120.742C70.0372 119.75 69.4707 118.192 68.196 118.334C67.2046 118.475 66.638 119.679 66.2131 120.458C65.5758 121.804 65.0801 123.291 64.5844 124.707C64.3719 125.274 64.2303 125.84 63.947 126.407C63.8054 126.69 63.3805 127.469 62.9556 127.398C62.2474 127.186 62.8848 124.282 63.0264 123.787C63.5929 121.167 64.3719 118.759 64.5135 116.068C64.6552 112.173 64.3719 107.499 60.5478 105.374C59.5564 104.808 58.2817 104.454 57.3611 105.304C56.4405 106.153 56.1572 107.57 56.0156 108.703C55.5907 112.314 56.4405 115.714 57.5736 119.113C58.4942 121.945 59.6272 124.778 59.7689 127.823C59.8397 130.727 58.3525 133.276 57.6444 135.967C56.5113 140.287 56.7238 142.624 56.7238 144.04C56.7238 145.811 56.7946 147.51 56.9362 149.281C57.0778 150.909 57.2195 152.538 57.3611 154.096C57.4319 154.45 57.4319 154.733 57.5027 155.087C56.8654 153.6 56.6529 151.901 56.1572 150.414C55.2366 147.723 54.1744 145.173 53.3246 142.482C52.6164 140.287 51.9083 138.021 50.9876 135.896C50.067 133.913 49.0048 131.789 47.3052 130.302C46.3138 129.381 45.0391 128.885 43.6936 128.885C42.8438 128.885 42.0648 129.169 41.215 129.381C40.2236 129.664 39.3738 129.523 38.5948 128.885C35.833 126.761 35.054 123.008 33.0003 120.388C31.5132 118.405 27.9015 115.005 25.2813 117.201C23.865 118.334 23.5109 120.6 23.5818 122.3C23.6526 124.424 24.5732 126.407 25.7062 128.177C26.9101 130.089 28.3973 131.789 29.5303 133.701C30.1677 134.834 30.2385 135.967 30.1677 137.242C30.0968 138.446 29.9552 139.65 30.3801 140.853C31.6548 144.394 35.5497 143.899 38.5948 143.969C40.7193 144.04 42.9854 144.323 45.0391 145.032C47.376 145.811 48.8631 147.369 49.7129 149.635C50.3503 151.334 50.6336 153.175 51.7666 154.663C52.3331 155.3 53.0413 155.796 53.8203 156.15C55.0242 156.645 58.6358 156.929 58.6358 156.575C58.7066 155.442 59.2731 154.308 59.5564 153.246C60.1937 151.263 60.9019 149.351 61.6809 147.439Z" fill="#75BF7A"/>
<path d="M78.4644 146.731C78.1812 144.677 78.1812 142.482 77.2605 140.57C77.1897 140.428 76.9773 140.428 76.9065 140.499C76.1983 140.853 76.1983 141.986 76.1275 142.694C76.0567 143.828 76.1275 144.961 75.9859 146.094C75.7734 148.076 75.2777 150.13 74.5695 151.971C73.7906 154.096 72.3034 155.3 70.1789 155.937C68.8334 156.362 67.4879 156.716 66.3548 157.637C65.3634 158.416 64.6553 159.549 64.0887 160.753C62.6724 163.939 61.9642 167.48 61.3269 170.95C60.902 173.216 60.5479 175.553 59.9814 177.819C59.4149 180.085 58.8483 182.352 58.4942 184.688C58.4234 184.83 58.3526 184.901 58.3526 185.043C58.211 185.397 58.7775 185.609 58.9191 185.255C61.1144 181.856 63.8055 178.811 67.4879 176.97C69.1167 176.12 71.312 175.978 72.7283 174.633C73.7906 173.641 73.9322 172.083 73.7906 170.738C73.5781 168.967 72.7283 167.48 71.8077 165.922C71.312 165.072 70.7455 164.152 70.9579 163.16C71.1704 162.169 71.9493 161.461 72.7283 160.965C74.2155 160.044 76.0567 159.62 77.2605 158.203C78.3936 156.929 79.031 155.371 79.1726 153.671C79.2434 151.405 78.8185 148.997 78.4644 146.731Z" fill="#75BF7A"/>
<path d="M48.509 158.416C46.5969 155.937 44.1892 153.742 41.569 151.971C40.1526 151.051 36.8243 149.21 36.1869 151.971C35.762 153.6 37.3908 155.158 38.3822 156.22C39.9402 157.707 41.7814 159.053 43.0561 160.823C41.4273 161.319 39.7278 161.461 38.3114 162.594C36.6118 163.939 35.9037 166.489 37.5324 168.117C38.3114 168.896 39.4445 169.392 40.4359 169.888C41.7814 170.525 43.0561 171.092 44.4016 171.658C47.3051 172.862 50.2794 174.137 52.7579 176.12C55.3073 178.173 57.6443 181.573 57.8567 184.901C57.8567 185.184 57.7859 184.901 57.9275 184.759C57.9983 184.83 58.3524 184.688 58.3524 184.476C58.2816 179.59 57.4318 174.916 55.3781 170.384C53.6077 166.276 51.2708 162.027 48.509 158.416Z" fill="#75BF7A"/>
<path d="M41.7814 112.739C42.8436 114.935 43.9767 117.13 45.1805 119.325C46.3136 121.379 47.4466 123.503 48.2964 125.699C49.3587 128.46 50.4209 131.152 51.554 133.843C52.6871 136.675 53.7493 139.579 54.5991 142.482C56.2279 148.218 57.4317 154.096 57.9983 160.045C58.2815 163.09 58.4232 166.064 58.3524 169.109C58.2815 171.446 57.9983 173.854 57.7858 176.191C57.5734 178.669 57.3609 181.148 57.5734 183.556C57.715 185.609 58.0691 188.088 59.6979 189.504C59.9811 189.787 60.4768 189.433 60.2644 189.079C58.3523 185.184 58.494 180.935 58.8481 176.757C59.0605 174.42 59.3438 172.083 59.4146 169.746C59.4854 166.772 59.4146 163.798 59.1313 160.824C58.5648 155.017 57.4317 149.28 55.9446 143.615C55.1656 140.712 54.245 137.879 53.1119 135.117C51.9789 132.355 50.7042 129.594 49.642 126.832C47.7299 121.733 44.7556 117.272 42.1354 112.527C41.9938 112.244 41.6397 112.456 41.7814 112.739Z" fill="#263238"/>
<path d="M58.14 154.238C58.4233 150.555 58.7774 147.014 60.0521 143.474C60.6186 141.845 61.3268 140.216 61.8933 138.587C62.389 137.242 63.0263 135.33 62.6723 133.913C62.6014 133.772 62.389 133.772 62.3182 133.913C62.1057 134.763 62.1057 135.684 61.9641 136.534C61.8225 137.383 61.5392 138.162 61.3268 138.941C60.7602 140.641 60.0521 142.27 59.4147 143.969C58.2108 147.227 57.5735 150.838 57.8568 154.308C57.8568 154.379 58.0692 154.379 58.14 154.238Z" fill="#263238"/>
<path d="M36.6827 132.993C38.1698 136.534 42.5605 136.746 45.7472 137.525C48.0133 138.092 49.7129 139.65 50.9168 141.632C52.2623 143.828 53.1829 146.377 53.891 148.785H53.9619C53.0413 144.536 51.7666 139.437 47.376 137.454C43.8351 135.896 39.2321 136.675 36.966 132.851C36.966 132.639 36.6119 132.78 36.6827 132.993Z" fill="#263238"/>
<path d="M55.8032 153.671C55.9448 153.883 56.1573 154.167 56.2989 154.379C56.3697 154.521 56.5113 154.592 56.5822 154.662C56.7238 154.733 56.8654 154.875 57.007 154.875C57.0779 154.875 57.1487 154.804 57.0779 154.733C57.007 154.592 56.8654 154.521 56.7946 154.45C56.7238 154.379 56.5822 154.237 56.5113 154.167C56.2989 153.954 56.0864 153.742 55.9448 153.529C55.8032 153.6 55.7324 153.6 55.8032 153.671Z" fill="#263238"/>
<path d="M46.5971 164.931C49.1465 166.984 51.4834 169.463 53.3247 172.154C54.2453 173.429 55.0243 174.774 55.8032 176.191C56.5822 177.678 57.1487 179.306 57.7861 180.864C57.8569 181.006 58.0694 181.006 58.0694 180.864C57.7153 177.536 55.5908 174.703 53.8912 171.871C53.0414 170.454 51.9083 169.251 50.7753 168.047C49.5714 166.772 48.2967 165.639 46.8804 164.647C46.6679 164.506 46.4555 164.789 46.5971 164.931Z" fill="#263238"/>
<path d="M66.78 160.965C65.5761 161.673 65.5053 163.585 65.5053 164.789C65.4345 167.126 66.0718 169.392 65.0096 171.587C64.089 173.641 62.6018 175.341 61.3979 177.182C60.2649 178.952 59.2026 181.218 59.2026 183.343C59.2026 183.484 59.4151 183.555 59.4151 183.414C59.84 182.422 60.0524 181.36 60.3357 180.369C60.6898 179.235 61.1855 178.173 61.8228 177.182C62.9559 175.411 64.3722 173.853 65.2928 171.941C66.2843 169.959 66.1426 167.976 66.0718 165.851C66.001 164.506 65.8594 162.24 66.9924 161.248C67.2049 161.177 66.9924 160.894 66.78 160.965Z" fill="#263238"/>
<path d="M58.6359 183.626C53.7496 183.555 44.4019 183.484 44.4019 183.484L46.7388 200.693C47.2345 204.588 50.5629 207.42 54.4578 207.42H58.4943H58.9192H62.9557C66.8506 207.42 70.179 204.517 70.6747 200.693L73.0116 183.484C72.87 183.555 63.5222 183.555 58.6359 183.626Z" fill="white"/>
<path d="M295.941 152.113L267.898 207.562L186.247 208.129L211.457 151.263L295.941 152.113Z" fill="#263238"/>
<path d="M132.072 207.775V203.313H184.901L209.191 149.989H293.746L295.87 152.042H213.369L188.088 207.704C188.088 207.775 132.072 207.633 132.072 207.775Z" fill="#263238"/>
<path d="M253.522 182.706C252.601 185.467 247.573 187.592 242.333 187.45C237.093 187.309 233.552 184.972 234.472 182.21C235.393 179.448 240.421 177.324 245.661 177.465C250.972 177.607 254.442 179.944 253.522 182.706Z" fill="#263238"/>
<path d="M188.088 208.129C188.017 208.129 188.017 208.129 187.946 208.129C187.734 208.058 187.663 207.846 187.805 207.633L213.157 151.759H295.941C296.153 151.759 296.295 151.901 296.295 152.113C296.295 152.326 296.153 152.467 295.941 152.467H213.582L188.371 207.917C188.371 208.058 188.23 208.129 188.088 208.129Z" fill="white"/>
<path d="M128.39 212.024H127.823H31.23V215.99H127.823H128.39H302.598V212.024H128.39Z" fill="white"/>
<path d="M132.639 207.775H26.5562V213.015H132.639V207.775Z" fill="#263238"/>
<path d="M306.847 207.775H132.072V213.015H306.847V207.775Z" fill="#263238"/>
<path d="M103.887 94.752H69.5414C67.4169 94.752 65.7173 93.0524 65.7173 90.9279V73.7904C65.7173 71.6659 67.4169 69.9663 69.5414 69.9663H103.816C105.941 69.9663 107.64 71.6659 107.64 73.7904V90.9279C107.711 93.0524 106.012 94.752 103.887 94.752Z" fill="white"/>
<path d="M117.484 82.3591L104.595 76.9062V87.812L117.484 82.3591Z" fill="white"/>
<path d="M78.606 84.6963C79.8966 84.6963 80.9429 83.6501 80.9429 82.3594C80.9429 81.0687 79.8966 80.0225 78.606 80.0225C77.3153 80.0225 76.269 81.0687 76.269 82.3594C76.269 83.6501 77.3153 84.6963 78.606 84.6963Z" fill="#263238"/>
<path d="M86.75 84.6963C88.0407 84.6963 89.087 83.6501 89.087 82.3594C89.087 81.0687 88.0407 80.0225 86.75 80.0225C85.4594 80.0225 84.4131 81.0687 84.4131 82.3594C84.4131 83.6501 85.4594 84.6963 86.75 84.6963Z" fill="#263238"/>
<path d="M94.8228 84.6963C96.1134 84.6963 97.1597 83.6501 97.1597 82.3594C97.1597 81.0687 96.1134 80.0225 94.8228 80.0225C93.5321 80.0225 92.4858 81.0687 92.4858 82.3594C92.4858 83.6501 93.5321 84.6963 94.8228 84.6963Z" fill="#263238"/>
<path d="M278.449 17.2793H199.277C194.178 17.2793 190.071 21.3866 190.071 26.4854V64.018C190.071 69.1168 194.178 73.2241 199.277 73.2241H206.359C206.571 76.6233 206.075 81.7221 203.243 88.1663C212.378 83.9174 217.689 77.6147 220.38 73.2241H278.449C283.548 73.2241 287.656 69.1168 287.656 64.018V26.4854C287.656 21.3866 283.548 17.2793 278.449 17.2793Z" fill="#75BF7A"/>
<path d="M244.67 35.1957H205.438C204.376 35.1957 203.455 34.3459 203.455 33.2128C203.455 32.1506 204.305 31.23 205.438 31.23H244.67C245.732 31.23 246.653 32.0798 246.653 33.2128C246.653 34.2751 245.732 35.1957 244.67 35.1957Z" fill="white"/>
<path d="M272.855 46.5972H204.659C204.022 46.5972 203.455 46.0307 203.455 45.3933C203.455 44.756 204.022 44.1895 204.659 44.1895H272.855C273.492 44.1895 274.059 44.756 274.059 45.3933C274.059 46.0307 273.492 46.5972 272.855 46.5972Z" fill="#75BF7A"/>
<path d="M272.855 53.1827H204.659C204.022 53.1827 203.455 52.6161 203.455 51.9788C203.455 51.3414 204.022 50.7749 204.659 50.7749H272.855C273.492 50.7749 274.059 51.3414 274.059 51.9788C274.059 52.6869 273.492 53.1827 272.855 53.1827Z" fill="#75BF7A"/>
<path d="M257.984 60.2642H204.659C204.022 60.2642 203.455 59.6977 203.455 59.0603C203.455 58.423 204.022 57.8564 204.659 57.8564H257.984C258.621 57.8564 259.187 58.423 259.187 59.0603C259.187 59.7685 258.621 60.2642 257.984 60.2642Z" fill="#75BF7A"/>
<path d="M272.288 35.1957H253.522C252.46 35.1957 251.539 34.3459 251.539 33.2128C251.539 32.1506 252.389 31.23 253.522 31.23H272.288C273.35 31.23 274.271 32.0798 274.271 33.2128C274.271 34.2751 273.35 35.1957 272.288 35.1957Z" fill="white"/>
<path d="M225.054 121.591H203.809C203.03 121.591 202.393 120.954 202.393 120.175V105.658C202.393 104.879 203.03 104.241 203.809 104.241H225.054C225.833 104.241 226.47 104.879 226.47 105.658V120.175C226.47 120.954 225.904 121.591 225.054 121.591Z" fill="white"/>
<path d="M214.573 115.501C214.431 115.501 214.36 115.43 214.219 115.36L202.676 105.799C202.463 105.587 202.392 105.304 202.605 105.02C202.817 104.808 203.101 104.737 203.384 104.95L214.644 114.227L225.62 104.737C225.833 104.525 226.187 104.596 226.399 104.808C226.612 105.02 226.541 105.375 226.328 105.587L215.068 115.43C214.856 115.43 214.714 115.501 214.573 115.501Z" fill="#263238"/>
<path d="M203.03 121.166C202.888 121.166 202.746 121.095 202.675 121.025C202.463 120.812 202.463 120.458 202.675 120.246L210.748 111.748C210.961 111.535 211.315 111.535 211.527 111.748C211.74 111.96 211.74 112.314 211.527 112.527L203.454 121.025C203.313 121.095 203.171 121.166 203.03 121.166Z" fill="#263238"/>
<path d="M225.903 120.883C225.762 120.883 225.62 120.812 225.549 120.741L217.405 112.597C217.193 112.385 217.193 112.031 217.405 111.819C217.618 111.606 217.972 111.606 218.184 111.819L226.257 119.892C226.47 120.104 226.47 120.458 226.257 120.671C226.116 120.812 226.045 120.883 225.903 120.883Z" fill="#263238"/>
<path d="M227.603 110.757C231.514 110.757 234.685 107.586 234.685 103.675C234.685 99.7638 231.514 96.5933 227.603 96.5933C223.692 96.5933 220.521 99.7638 220.521 103.675C220.521 107.586 223.692 110.757 227.603 110.757Z" fill="#FF5F42"/>
<path d="M225.62 103.675C225.762 103.675 225.974 103.817 226.116 103.958C226.258 104.1 226.399 104.241 226.47 104.454C226.541 104.666 226.612 104.879 226.612 105.091C226.612 105.375 226.541 105.658 226.399 105.87C226.258 106.083 226.045 106.295 225.762 106.437C225.479 106.578 225.195 106.649 224.841 106.649C224.487 106.649 224.204 106.578 223.921 106.437C223.637 106.295 223.425 106.083 223.283 105.87C223.142 105.658 223.071 105.375 223.071 105.091C223.071 104.808 223.142 104.596 223.212 104.454C223.283 104.312 223.425 104.1 223.567 103.958C223.708 103.817 223.921 103.746 224.062 103.604C223.921 103.533 223.779 103.392 223.637 103.321C223.496 103.179 223.425 103.038 223.283 102.825C223.212 102.613 223.142 102.471 223.142 102.259C223.142 101.975 223.212 101.692 223.354 101.48C223.496 101.267 223.708 101.055 223.921 100.913C224.204 100.772 224.416 100.701 224.77 100.701C225.124 100.701 225.337 100.772 225.62 100.913C225.903 101.055 226.045 101.267 226.187 101.48C226.328 101.692 226.399 101.975 226.399 102.259C226.399 102.471 226.328 102.684 226.258 102.825C226.187 103.038 226.045 103.179 225.903 103.321C225.903 103.463 225.762 103.604 225.62 103.675ZM224.912 106.366C225.337 106.366 225.691 106.224 225.974 106.012C226.258 105.799 226.399 105.445 226.399 105.091C226.399 104.808 226.328 104.596 226.187 104.454C226.045 104.241 225.903 104.1 225.691 104.029C225.479 103.887 225.266 103.887 224.983 103.887C224.7 103.887 224.487 103.958 224.275 104.029C224.062 104.171 223.921 104.312 223.779 104.454C223.637 104.666 223.567 104.879 223.567 105.091C223.567 105.445 223.708 105.729 223.921 106.012C224.133 106.295 224.487 106.366 224.912 106.366ZM223.637 102.259C223.637 102.542 223.708 102.754 223.85 102.896C223.991 103.108 224.133 103.25 224.345 103.321C224.558 103.392 224.77 103.463 224.983 103.463C225.195 103.463 225.408 103.392 225.62 103.321C225.833 103.25 225.974 103.038 226.116 102.896C226.258 102.684 226.328 102.471 226.328 102.259C226.328 101.905 226.187 101.621 225.974 101.338C225.762 101.055 225.408 100.984 225.054 100.984C224.7 100.984 224.345 101.126 224.133 101.338C223.921 101.55 223.637 101.905 223.637 102.259Z" fill="white"/>
<path d="M229.161 106.649C228.949 106.649 228.665 106.578 228.453 106.508C228.24 106.437 228.028 106.295 227.815 106.154L227.745 106.083V106.012C227.745 105.941 227.745 105.941 227.815 105.87C227.815 105.799 227.886 105.799 227.957 105.799C228.028 105.799 228.028 105.799 228.099 105.87C228.24 106.012 228.453 106.083 228.665 106.154C228.878 106.224 229.09 106.224 229.232 106.224C229.586 106.224 229.869 106.154 230.152 106.012C230.436 105.87 230.648 105.658 230.79 105.445C230.931 105.162 231.002 104.879 231.002 104.596C231.002 104.312 230.931 104.029 230.79 103.746C230.648 103.533 230.436 103.321 230.223 103.179C229.94 103.038 229.657 102.967 229.303 102.967C229.09 102.967 228.878 102.967 228.736 103.038C228.524 103.108 228.382 103.179 228.311 103.25C228.24 103.321 228.099 103.321 228.028 103.321H227.957L227.886 103.25C227.886 103.25 227.886 103.179 227.886 103.108L228.311 100.772C228.311 100.772 228.311 100.701 228.382 100.701C228.453 100.701 228.453 100.63 228.524 100.63H231.144C231.215 100.63 231.215 100.63 231.285 100.701C231.356 100.772 231.356 100.772 231.356 100.842C231.356 100.913 231.356 100.913 231.285 100.984C231.215 101.055 231.215 101.055 231.144 101.055H228.594L228.665 100.984L228.24 103.108L228.099 103.038C228.17 102.967 228.311 102.896 228.453 102.896C228.594 102.896 228.736 102.754 228.948 102.754C229.161 102.684 229.303 102.684 229.515 102.684C229.869 102.684 230.223 102.754 230.506 102.896C230.79 103.038 231.002 103.25 231.215 103.533C231.356 103.817 231.498 104.171 231.498 104.525C231.498 104.95 231.427 105.304 231.215 105.587C231.073 105.87 230.79 106.154 230.506 106.295C229.94 106.578 229.586 106.649 229.161 106.649Z" fill="white"/>
<path d="M298.986 101.055H257.488C255.93 101.055 254.655 99.7802 254.655 98.2223V91.7072C254.655 90.1492 255.93 88.8745 257.488 88.8745H298.986C300.544 88.8745 301.819 90.1492 301.819 91.7072V98.2223C301.819 99.7802 300.544 101.055 298.986 101.055Z" fill="#263238"/>
<path d="M260.462 98.1513C260.25 98.1513 260.108 98.0804 260.037 97.9388C259.896 97.7972 259.896 97.6556 259.896 97.4431L260.108 95.8851C260.108 95.8143 260.108 95.8143 260.108 95.8143H260.037L258.763 96.7349C258.621 96.8766 258.408 96.8766 258.267 96.8766C258.125 96.8766 257.984 96.7349 257.842 96.5933C257.7 96.3808 257.7 96.1684 257.771 96.0268C257.842 95.8851 257.984 95.7435 258.125 95.6727L259.612 95.0353C259.683 95.0353 259.683 95.0353 259.683 94.9645C259.683 94.9645 259.683 94.8937 259.612 94.8937L258.125 94.2564C257.913 94.1856 257.842 94.0439 257.771 93.9023C257.7 93.7607 257.771 93.5482 257.842 93.4066C257.913 93.2649 258.054 93.1233 258.267 93.1233C258.408 93.1233 258.621 93.1233 258.763 93.2649L260.037 94.2564C260.108 94.2564 260.108 94.2564 260.108 94.2564V94.1856L259.896 92.6276C259.896 92.4151 259.966 92.2735 260.037 92.1319C260.179 91.9903 260.321 91.9194 260.533 91.9194C260.745 91.9194 260.887 91.9903 260.958 92.1319C261.099 92.2735 261.099 92.4151 261.099 92.6276L260.887 94.1856C260.887 94.2564 260.887 94.2564 260.887 94.2564H260.958L262.233 93.3358C262.374 93.1941 262.587 93.1941 262.728 93.1941C262.941 93.1941 263.012 93.3358 263.153 93.4774C263.295 93.6898 263.295 93.9023 263.224 94.0439C263.153 94.1856 263.012 94.3272 262.87 94.398L261.383 95.0353C261.312 95.0353 261.312 95.0353 261.312 95.1062C261.312 95.1062 261.312 95.177 261.383 95.177L262.87 95.8143C263.082 95.8851 263.153 96.0268 263.224 96.1684C263.295 96.31 263.295 96.5225 263.153 96.6641C263.082 96.8058 262.941 96.9474 262.728 96.9474C262.516 96.9474 262.374 96.9474 262.233 96.8057L260.958 95.8143C260.887 95.8143 260.887 95.8143 260.887 95.8143V95.8851L261.099 97.4431C261.099 97.6556 261.099 97.7972 260.958 97.9388C260.816 98.0804 260.675 98.1513 260.462 98.1513Z" fill="white"/>
<path d="M269.031 98.1513C268.819 98.1513 268.677 98.0804 268.606 97.9388C268.464 97.7972 268.464 97.6556 268.464 97.4431L268.677 95.8851C268.677 95.8143 268.677 95.8143 268.677 95.8143H268.606L267.331 96.7349C267.19 96.8766 266.977 96.8766 266.836 96.8766C266.694 96.8766 266.552 96.7349 266.411 96.5933C266.269 96.3808 266.269 96.1684 266.34 96.0268C266.411 95.8851 266.552 95.7435 266.694 95.6727L268.181 95.0353C268.252 95.0353 268.252 95.0353 268.252 94.9645C268.252 94.9645 268.252 94.8937 268.181 94.8937L266.694 94.2564C266.482 94.1856 266.411 94.0439 266.34 93.9023C266.269 93.7607 266.34 93.5482 266.411 93.4066C266.552 93.2649 266.623 93.1233 266.836 93.1233C266.977 93.1233 267.19 93.1233 267.331 93.2649L268.606 94.2564C268.677 94.2564 268.677 94.2564 268.677 94.2564V94.1856L268.464 92.6276C268.464 92.4151 268.535 92.2735 268.606 92.1319C268.748 91.9903 268.889 91.9194 269.102 91.9194C269.314 91.9194 269.456 91.9903 269.527 92.1319C269.668 92.2735 269.668 92.4151 269.668 92.6276L269.456 94.1856C269.456 94.2564 269.456 94.2564 269.456 94.2564H269.527L270.801 93.3358C270.943 93.1941 271.155 93.1941 271.297 93.1941C271.51 93.1941 271.58 93.3358 271.722 93.4774C271.864 93.6898 271.864 93.9023 271.793 94.0439C271.722 94.1856 271.58 94.3272 271.439 94.398L269.952 95.0353C269.881 95.0353 269.881 95.0353 269.881 95.1062C269.881 95.1062 269.881 95.177 269.952 95.177L271.439 95.8143C271.651 95.8851 271.722 96.0268 271.793 96.1684C271.864 96.31 271.864 96.5225 271.722 96.6641C271.651 96.8058 271.51 96.9474 271.297 96.9474C271.085 96.9474 270.943 96.9474 270.801 96.8057L269.527 95.8143C269.456 95.8143 269.456 95.8143 269.456 95.8143V95.8851L269.668 97.4431C269.668 97.6556 269.668 97.7972 269.527 97.9388C269.385 98.0804 269.243 98.1513 269.031 98.1513Z" fill="white"/>
<path d="M277.6 98.1513C277.387 98.1513 277.246 98.0804 277.175 97.9388C277.033 97.7972 277.033 97.6556 277.033 97.4431L277.246 95.8851C277.246 95.8143 277.246 95.8143 277.246 95.8143H277.175L275.9 96.7349C275.759 96.8766 275.546 96.8766 275.405 96.8766C275.263 96.8766 275.121 96.7349 274.98 96.5933C274.838 96.3808 274.838 96.1684 274.909 96.0268C274.98 95.8851 275.121 95.7435 275.263 95.6727L276.75 95.0353C276.821 95.0353 276.821 95.0353 276.821 94.9645C276.821 94.9645 276.821 94.8937 276.75 94.8937L275.263 94.2564C275.05 94.1856 274.98 94.0439 274.909 93.9023C274.838 93.7607 274.909 93.5482 274.98 93.4066C275.05 93.2649 275.192 93.1233 275.405 93.1233C275.546 93.1233 275.759 93.1233 275.9 93.2649L277.175 94.2564C277.246 94.2564 277.246 94.2564 277.246 94.2564V94.1856L277.033 92.6276C277.033 92.4151 277.104 92.2735 277.175 92.1319C277.317 91.9903 277.458 91.9194 277.671 91.9194C277.883 91.9194 278.025 91.9903 278.096 92.1319C278.237 92.2735 278.237 92.4151 278.237 92.6276L278.025 94.1856C278.025 94.2564 278.025 94.2564 278.025 94.2564H278.096L279.37 93.3358C279.512 93.1941 279.724 93.1941 279.866 93.1941C280.078 93.1941 280.149 93.3358 280.291 93.4774C280.432 93.6898 280.432 93.9023 280.362 94.0439C280.291 94.1856 280.149 94.3272 280.008 94.398L278.52 95.0353C278.45 95.0353 278.45 95.0353 278.45 95.1062C278.45 95.1062 278.45 95.177 278.52 95.177L280.008 95.8143C280.22 95.8851 280.291 96.0268 280.362 96.1684C280.432 96.31 280.432 96.5225 280.291 96.6641C280.22 96.8058 280.078 96.9474 279.866 96.9474C279.654 96.9474 279.512 96.9474 279.37 96.8057L278.096 95.8143C278.025 95.8143 278.025 95.8143 278.025 95.8143V95.8851L278.237 97.4431C278.237 97.6556 278.237 97.7972 278.096 97.9388C278.025 98.0804 277.812 98.1513 277.6 98.1513Z" fill="white"/>
<path d="M286.239 98.1513C286.027 98.1513 285.885 98.0804 285.815 97.9388C285.673 97.7972 285.673 97.6556 285.673 97.4431L285.885 95.8851C285.885 95.8143 285.885 95.8143 285.885 95.8143H285.815L284.54 96.7349C284.398 96.8766 284.186 96.8766 284.044 96.8766C283.903 96.8766 283.761 96.7349 283.619 96.5933C283.478 96.3808 283.478 96.1684 283.548 96.0268C283.619 95.8851 283.761 95.7435 283.903 95.6727L285.39 95.0353C285.461 95.0353 285.461 95.0353 285.461 94.9645C285.461 94.9645 285.461 94.8937 285.39 94.8937L283.903 94.2564C283.69 94.1856 283.619 94.0439 283.548 93.9023C283.478 93.7607 283.548 93.5482 283.619 93.4066C283.761 93.2649 283.832 93.1233 284.044 93.1233C284.186 93.1233 284.398 93.1233 284.54 93.2649L285.815 94.2564C285.885 94.2564 285.885 94.2564 285.885 94.2564V94.1856L285.673 92.6276C285.673 92.4151 285.744 92.2735 285.815 92.1319C285.956 91.9903 286.098 91.9194 286.31 91.9194C286.523 91.9194 286.664 91.9903 286.735 92.1319C286.877 92.2735 286.877 92.4151 286.877 92.6276L286.664 94.1856C286.664 94.2564 286.664 94.2564 286.664 94.2564H286.735L288.01 93.3358C288.152 93.1941 288.364 93.1941 288.506 93.1941C288.718 93.1941 288.789 93.3358 288.931 93.4774C289.072 93.6898 289.072 93.9023 289.001 94.0439C288.931 94.1856 288.789 94.3272 288.647 94.398L287.16 95.0353C287.089 95.0353 287.089 95.0353 287.089 95.1062C287.089 95.1062 287.089 95.177 287.16 95.177L288.647 95.8143C288.86 95.8851 288.931 96.0268 289.001 96.1684C289.072 96.31 289.072 96.5225 288.931 96.6641C288.86 96.8058 288.718 96.9474 288.506 96.9474C288.293 96.9474 288.152 96.9474 288.01 96.8057L286.735 95.8143C286.664 95.8143 286.664 95.8143 286.664 95.8143V95.8851L286.877 97.4431C286.877 97.6556 286.877 97.7972 286.735 97.9388C286.594 98.0804 286.452 98.1513 286.239 98.1513Z" fill="white"/>
<path d="M294.808 98.1513C294.595 98.1513 294.454 98.0804 294.383 97.9388C294.241 97.7972 294.241 97.6556 294.241 97.4431L294.454 95.8851C294.454 95.8143 294.454 95.8143 294.454 95.8143H294.383L293.108 96.7349C292.967 96.8766 292.754 96.8766 292.613 96.8766C292.471 96.8766 292.329 96.7349 292.188 96.5933C292.046 96.3808 292.046 96.1684 292.117 96.0268C292.188 95.8851 292.329 95.7435 292.471 95.6727L293.958 95.0353C294.029 95.0353 294.029 95.0353 294.029 94.9645C294.029 94.9645 294.029 94.8937 293.958 94.8937L292.471 94.2564C292.258 94.1856 292.188 94.0439 292.117 93.9023C292.046 93.7607 292.117 93.5482 292.188 93.4066C292.258 93.2649 292.4 93.1233 292.613 93.1233C292.754 93.1233 292.967 93.1233 293.108 93.2649L294.383 94.2564C294.454 94.2564 294.454 94.2564 294.454 94.2564V94.1856L294.241 92.6276C294.241 92.4151 294.312 92.2735 294.383 92.1319C294.525 91.9903 294.666 91.9194 294.879 91.9194C295.091 91.9194 295.233 91.9903 295.304 92.1319C295.445 92.2735 295.445 92.4151 295.445 92.6276L295.233 94.1856C295.233 94.2564 295.233 94.2564 295.233 94.2564H295.304L296.578 93.3358C296.72 93.1941 296.932 93.1941 297.074 93.1941C297.286 93.1941 297.357 93.3358 297.499 93.4774C297.64 93.6898 297.641 93.9023 297.57 94.0439C297.499 94.1856 297.357 94.3272 297.216 94.398L295.728 95.0353C295.658 95.0353 295.658 95.0353 295.658 95.1062C295.658 95.1062 295.658 95.177 295.728 95.177L297.216 95.8143C297.428 95.8851 297.499 96.0268 297.57 96.1684C297.641 96.31 297.64 96.5225 297.499 96.6641C297.428 96.8058 297.286 96.9474 297.074 96.9474C296.862 96.9474 296.72 96.9474 296.578 96.8057L295.304 95.8143C295.233 95.8143 295.233 95.8143 295.233 95.8143V95.8851L295.445 97.4431C295.445 97.6556 295.445 97.7972 295.304 97.9388C295.162 98.0804 295.02 98.1513 294.808 98.1513Z" fill="#75BF7A"/>
</svg>
