<svg width="132" height="38" viewBox="0 0 132 38" fill="none" xmlns="http://www.w3.org/2000/svg">
<path d="M55.4964 14.2009H51.1745V36H46.2353V14.2009H42.6734V9.68914H46.2353V0.85553H51.1745V9.68914H55.4964V14.2009ZM84.3881 22.5121C84.3881 23.3353 84.3406 24.1585 84.2457 24.9817H62.4466C62.9532 27.0714 63.9822 28.797 65.5336 30.1584C67.1167 31.4882 68.9689 32.1531 71.0902 32.1531C72.6416 32.1531 74.0981 31.7573 75.4595 30.9658C76.8527 30.1742 77.8975 29.0978 78.594 27.7363H83.5333C82.5201 30.4275 80.8737 32.5964 78.594 34.2428C76.3144 35.8575 73.7498 36.6649 70.9003 36.6649C67.1958 36.6649 64.0297 35.2876 61.4018 32.533C58.8055 29.7785 57.5074 26.5332 57.5074 22.7971C57.5074 18.966 58.8055 15.7049 61.4018 13.0136C63.998 10.3224 67.1958 8.97675 70.9952 8.97675C74.6997 8.97675 77.85 10.3065 80.4463 12.9661C83.0742 15.6257 84.3881 18.8077 84.3881 22.5121ZM79.4489 21.1823C79.3223 19.0293 78.4041 17.2088 76.6943 15.7207C75.0163 14.2326 73.1007 13.4885 70.9477 13.4885C68.7948 13.4885 66.8634 14.2326 65.1537 15.7207C63.4756 17.2088 62.5732 19.0293 62.4466 21.1823H79.4489ZM100.707 14.0585C99.4718 14.0585 98.2845 14.3751 97.1447 15.0083C95.2133 15.9898 94.2477 18.1903 94.2477 21.6098V36H89.3084V9.68914H93.9152V12.0638H94.0102C95.4033 10.1007 97.6355 9.07174 100.707 8.97675V14.0585ZM129.701 22.5121C129.701 23.3353 129.653 24.1585 129.558 24.9817H107.759C108.266 27.0714 109.295 28.797 110.846 30.1584C112.429 31.4882 114.282 32.1531 116.403 32.1531C117.954 32.1531 119.411 31.7573 120.772 30.9658C122.165 30.1742 123.21 29.0978 123.907 27.7363H128.846C127.833 30.4275 126.186 32.5964 123.907 34.2428C121.627 35.8575 119.063 36.6649 116.213 36.6649C112.509 36.6649 109.342 35.2876 106.714 32.533C104.118 29.7785 102.82 26.5332 102.82 22.7971C102.82 18.966 104.118 15.7049 106.714 13.0136C109.311 10.3224 112.509 8.97675 116.308 8.97675C120.012 8.97675 123.163 10.3065 125.759 12.9661C128.387 15.6257 129.701 18.8077 129.701 22.5121ZM124.762 21.1823C124.635 19.0293 123.717 17.2088 122.007 15.7207C120.329 14.2326 118.413 13.4885 116.26 13.4885C114.107 13.4885 112.176 14.2326 110.466 15.7207C108.788 17.2088 107.886 19.0293 107.759 21.1823H124.762Z" fill="black"/>
<path d="M36.0347 11.9467L35.9427 11.7223L35.7717 11.8942L32.366 15.3179L32.301 15.3832L32.3244 15.4723C32.6091 16.5578 32.7516 17.6792 32.7516 18.8372C32.7516 26.3525 26.643 32.4611 19.1276 32.4611C11.5941 32.4611 5.48566 26.3523 5.48566 18.8372C5.48566 17.6609 5.62823 16.5214 5.91286 15.4363L5.93622 15.3472L5.87128 15.2819L2.46559 11.8582L2.29402 11.6857L2.20235 11.9111C1.32997 14.0557 0.839026 16.3827 0.839026 18.8372C0.839026 28.9089 9.0379 37.1077 19.1096 37.1077C29.1813 37.1077 37.3802 28.9089 37.3802 18.8372C37.3802 16.4016 36.9076 14.0743 36.0347 11.9467ZM30.4363 11.2685L30.5454 11.4312L30.6839 11.2927L33.7832 8.19333L33.8813 8.09519L33.7987 7.98367C30.4722 3.49383 25.1275 0.566565 19.1096 0.566565C13.11 0.566565 7.76516 3.47561 4.43852 7.96565L4.3559 8.07717L4.45404 8.17531L7.55339 11.2747L7.69186 11.4131L7.80092 11.2505C9.86691 8.16931 13.1616 5.97895 16.9722 5.37343C17.6664 5.26666 18.3788 5.2132 19.1096 5.2132C19.8404 5.2132 20.5529 5.26666 21.2471 5.37344C25.0753 5.97891 28.3701 8.18701 30.4363 11.2685Z" fill="black" stroke="black" stroke-width="0.321949"/>
<path d="M21.2776 19.4274H21.4386V19.2664L21.4386 2.49023V2.32926H21.2776L16.9529 2.32926H16.7919V2.49023L16.7919 19.2664V19.4274H16.9529H21.2776Z" fill="black" stroke="black" stroke-width="0.321949"/>
</svg>
