<svg width="553" height="584" viewBox="0 0 553 584" fill="none" xmlns="http://www.w3.org/2000/svg">
<path d="M161.848 164.307C161.513 162.966 160.284 161.29 159.082 160.564L151.79 156.233C150.589 155.535 148.494 154.78 147.125 154.557L138.743 153.216C137.374 152.992 135.809 151.763 135.251 150.506L134.245 148.215C133.686 146.958 132.149 145.561 130.836 145.114L126.562 143.689C125.249 143.242 123.377 142.096 122.399 141.09L119.046 137.71C118.068 136.732 116.141 135.922 114.744 135.922H90.4651C89.0682 135.922 87.5595 134.86 87.0566 133.547L85.7994 130.166C85.3244 128.881 83.8437 127.428 82.5306 126.981L77.3619 125.193C76.0488 124.746 74.7357 123.266 74.4284 121.897L74.2607 121.198C73.9534 119.857 72.6962 118.209 71.4669 117.538L64.7058 113.878C63.4765 113.208 62.9736 111.671 63.5603 110.414L65.7116 105.916C66.2983 104.658 67.8908 103.373 69.2598 103.066L81.1616 100.328C82.5026 100.021 84.3186 100.663 85.1847 101.753L86.8052 103.82C87.6713 104.91 89.4593 105.525 90.8004 105.189L92.812 104.686C94.153 104.351 95.4661 102.954 95.7176 101.585L96.0808 99.6295C96.3322 98.2606 97.4777 96.5284 98.6232 95.7461L115.582 84.3192C116.727 83.5369 117.398 81.8047 117.035 80.4637L115.275 73.7025C114.939 72.3615 115.777 71.2719 117.174 71.2998L142.738 71.663C144.135 71.691 145.169 70.5734 145.057 69.1765L144.163 57.3864C144.051 56.0174 142.878 54.5926 141.537 54.2294L139.944 53.8103C138.603 53.4471 137.374 52.0222 137.234 50.6532L136.927 47.9152C136.787 46.5462 135.502 45.4566 134.133 45.5405L121.477 46.1551C120.08 46.211 118.488 47.3006 117.873 48.5578L116.56 51.3237C115.973 52.581 114.381 53.3912 113.012 53.1398L104.155 51.4914C102.786 51.2399 101.78 49.8989 101.92 48.5299L102.283 44.9258C102.423 43.5568 103.596 42.0202 104.909 41.5452L111.838 38.9749C113.151 38.4999 114.688 37.0751 115.303 35.8458L121.281 23.5528C121.896 22.2956 121.253 21.2898 119.857 21.2898H88.7609C87.364 21.2898 85.4082 22.072 84.4025 23.022L80.7425 26.4584C79.7367 27.4083 77.781 28.0788 76.412 27.9391L10.7005 21.5412C9.33149 21.4015 8.35364 22.4073 8.52127 23.8042L10.002 34.7562C10.1976 36.1252 9.19179 37.2427 7.8228 37.2427H2.51447C1.11754 37.2427 0 38.3882 0 39.7572V47.2168C0 48.6137 0.949911 50.3459 2.12333 51.0723L6.06267 53.5588C7.23609 54.3132 9.33149 54.8999 10.7005 54.8999H13.4105C14.8074 54.8999 15.9809 53.7544 16.0647 52.3854L16.2044 49.6474C16.2882 48.2505 17.4896 47.2168 18.8585 47.3006L34.0851 48.2784C35.482 48.3623 37.298 49.3401 38.1362 50.4297L42.3828 55.9336C43.221 57.0232 43.7518 59.0627 43.5563 60.4317L42.5505 67.5281C42.3549 68.8971 41.0697 70.2382 39.7287 70.4896L35.6217 71.2719C34.2527 71.5233 33.1352 72.8644 33.1072 74.2613L32.744 100.691C32.7161 102.088 33.5263 103.988 34.5321 104.966L42.9695 113.096C43.9753 114.046 44.59 115.974 44.3665 117.343L43.8915 120.136C43.668 121.505 44.562 122.93 45.9031 123.294L63.0294 127.987C64.3705 128.35 65.7954 129.747 66.1865 131.06L66.9129 133.491C67.304 134.832 68.7569 135.894 70.1538 135.894H72.8638C74.2607 135.894 75.5739 137.011 75.8253 138.38L76.2444 140.811C76.4958 142.18 77.809 143.298 79.2059 143.298H83.6481C85.045 143.298 86.3582 144.415 86.6096 145.784L87.4757 150.729C87.7272 152.098 86.7772 153.216 85.3803 153.216H84.8215C83.4246 153.216 82.1674 154.333 82.0277 155.73L80.8822 165.816C80.7146 167.185 81.4689 169.029 82.5306 169.923L90.7166 176.628C91.7783 177.494 92.6723 179.366 92.6723 180.735V190.793C92.6723 192.19 93.5663 194.006 94.6559 194.844L100.16 199.091C101.249 199.929 102.227 201.773 102.339 203.142L104.993 241.222C105.077 242.591 106.083 244.407 107.172 245.245L110.05 247.397C111.168 248.235 112.062 250.051 112.062 251.42V261.478C112.062 262.875 113.095 264.439 114.381 264.97L125.249 269.496C126.534 270.027 127.847 269.356 128.182 268.015L129.97 260.835C130.306 259.494 129.691 257.678 128.601 256.84L126.534 255.22C125.444 254.353 124.634 252.537 124.718 251.141L126.115 229.879C126.199 228.482 127.065 226.555 128.043 225.577L149.527 203.729C150.505 202.751 151.287 200.795 151.287 199.398V188.474C151.287 187.077 152.07 185.122 153.02 184.116L162.072 174.421C163.022 173.415 163.525 171.488 163.217 170.119L161.848 164.307ZM131.451 25.0615C132.122 26.2628 132.373 28.3582 132.01 29.6993L130.138 36.5163C129.775 37.8573 130.585 39.1146 131.954 39.3381L138.492 40.3718C139.861 40.5953 141.816 40.0086 142.822 39.0587L143.437 38.4999C144.442 37.55 145.281 35.6502 145.281 34.2533V30.0904C145.281 28.6935 144.247 27.1289 142.962 26.5702L138.072 24.4468C136.815 23.8881 136.201 22.4073 136.759 21.1221L137.206 20.0605C137.765 18.7753 139.274 17.3784 140.587 16.9034L155.171 11.8186C156.484 11.3716 158.3 10.1423 159.222 9.08061L160.2 7.96306C161.122 6.92933 161.541 4.97363 161.122 3.66052L160.731 2.3474C160.34 1.00635 158.998 0.447583 157.769 1.11811L149.946 5.22508C148.717 5.86767 146.594 6.37056 145.197 6.34262L131.507 6.11911C130.11 6.09118 128.657 7.18078 128.294 8.49389L126.925 13.1596C126.534 14.5007 126.757 16.5681 127.428 17.7974L131.451 25.0615ZM201.8 8.82916L179.338 3.01793C177.997 2.68267 176.013 3.10175 174.923 3.96784L163.832 12.7964C162.742 13.6625 160.787 14.7242 159.473 15.1433L151.986 17.5739C150.673 17.993 149.583 19.4458 149.583 20.8148C149.583 22.1838 150.729 23.2734 152.098 23.2734H155.953C157.35 23.2734 158.188 24.363 157.853 25.7041L154.64 38.3323C154.305 39.6734 154.417 41.8526 154.892 43.1377L157.629 50.6812C158.104 51.9943 159.613 53.0559 161.01 53.0559H163.636C165.033 53.0559 166.737 52.0781 167.464 50.9047L176.488 36.1531C177.214 34.9797 178.891 33.6666 180.204 33.2475L201.8 26.4584C203.113 26.0393 204.203 24.5586 204.203 23.1896V11.9583C204.231 10.5893 203.141 9.16442 201.8 8.82916ZM223.313 38.6396L225.492 35.2591C226.247 34.0856 225.8 32.7166 224.514 32.2138L220.296 30.5374C219.011 30.0345 217.39 30.5933 216.72 31.7947L215.183 34.5047C214.512 35.7061 214.959 37.2148 216.189 37.8573L219.709 39.6454C220.938 40.2601 222.559 39.813 223.313 38.6396ZM242.73 61.689C243.513 62.8344 244.798 62.8065 245.58 61.661L246.334 60.5155C247.089 59.3701 246.921 57.6099 245.943 56.6321L244.155 54.844C243.177 53.8662 241.781 54.0338 241.054 55.2072L241.026 55.2631C240.3 56.4365 240.356 58.3363 241.166 59.4818L242.73 61.689ZM251.699 68.031H251.922C253.319 68.031 255.051 67.0811 255.834 65.9077L256.756 64.5108C257.51 63.3373 258.097 61.2699 258.041 59.873L257.678 51.0444C257.622 49.6474 256.56 49.0048 255.303 49.5915L254.018 50.2062C252.76 50.7929 251.727 52.4133 251.727 53.8103V56.7718C251.727 58.1687 251.168 60.0126 250.469 60.9067C249.771 61.8007 249.212 63.6447 249.212 65.0416V65.5165C249.184 66.8855 250.302 68.031 251.699 68.031ZM552.653 41.3776L548.546 34.9517C547.792 33.7783 546.06 32.9122 544.663 32.996L521.837 34.4488C520.44 34.5327 518.54 33.7783 517.59 32.7725L512.17 27.0731C511.22 26.0673 509.32 25.0615 507.951 24.81L476.185 19.3341C474.816 19.1106 472.581 19.1385 471.24 19.4179L446.235 24.7262C444.866 25.0056 442.854 24.5586 441.765 23.7204L429.5 14.4728C428.382 13.6346 426.343 12.9641 424.974 12.9641H377.562C376.165 12.9641 374.098 13.5787 372.924 14.3331L365.297 19.2782C364.124 20.0325 363.202 21.7927 363.257 23.1616L363.425 30.286C363.453 31.6829 362.391 32.5211 361.05 32.1858L352.892 30.1463C351.551 29.811 349.735 30.4257 348.869 31.5153L343.114 38.7514C342.248 39.841 340.404 40.735 339.035 40.735H323.92C322.523 40.735 320.791 39.7851 320.036 38.6117L314.449 29.811C313.694 28.6376 312.018 27.3245 310.705 26.8775L304.503 24.7541C303.19 24.3071 301.038 24.3071 299.753 24.7821L284.638 30.2022C283.325 30.6771 281.509 31.9064 280.615 32.9402L271.479 43.3612C270.557 44.395 270.529 46.1272 271.395 47.2168L274.497 51.0723C275.363 52.1619 277.207 53.028 278.604 53.028H284.471C285.868 53.028 287.712 52.1619 288.606 51.1002L295.73 42.6628C296.624 41.6011 298.468 40.9585 299.809 41.2659L300.815 41.4894C302.184 41.7687 303.189 43.1377 303.05 44.5347L302.91 46.0154C302.77 47.3844 303.553 49.2563 304.586 50.1503L304.614 50.1783C305.676 51.0723 305.536 52.3575 304.307 53.028L301.625 54.4808C300.396 55.1513 299.278 56.7997 299.138 58.1966L298.803 61.2699C298.663 62.6389 297.406 63.8402 296.009 63.8961L278.576 64.7343C277.179 64.7901 275.754 63.7564 275.391 62.4433L274.916 60.7111C274.552 59.3701 273.1 58.2804 271.731 58.2804H269.076C267.68 58.2804 266.087 59.3142 265.5 60.5714L263.154 65.7401C262.567 66.9973 261.058 68.4501 259.745 68.925L258.823 69.2883C257.538 69.7911 255.75 71.0763 254.884 72.138L252.732 74.7642C251.866 75.8259 251.615 77.7536 252.202 79.0109L253.934 82.7267C254.521 83.9839 253.878 85.1574 252.509 85.3529L246.251 86.1911C244.882 86.3587 244.016 87.616 244.323 88.9849L245.832 95.3549C246.139 96.696 247.508 98.065 248.877 98.3723L255.694 99.9089C257.035 100.216 258.152 99.3222 258.152 97.9532V95.8858C258.152 94.4889 259.13 92.7846 260.304 92.0582L265.305 89.0408C266.478 88.3144 268.574 87.8953 269.943 88.0909L275.027 88.8453C276.396 89.0408 278.045 90.2142 278.687 91.4436L280.811 95.5505C281.453 96.7798 281.286 98.7076 280.448 99.7972L279.917 100.496C279.079 101.613 279.106 103.401 279.973 104.491L280.392 104.994C281.258 106.083 282.822 106.223 283.884 105.329L287.739 102.06C288.801 101.166 289.164 99.406 288.55 98.1768L285.476 92.0023C284.862 90.773 285.281 89.0967 286.398 88.2865L287.656 87.3925C288.773 86.5822 290.338 86.8616 291.092 88.0071L296.596 96.249C297.378 97.3945 299.055 97.9532 300.368 97.4783L306.291 95.327C307.604 94.8521 309.42 95.327 310.314 96.3607L317.941 105.022C318.863 106.055 319.338 108.011 319.031 109.352L318.416 111.867C318.081 113.208 316.712 114.549 315.371 114.828L296.009 118.851C294.64 119.131 292.489 118.963 291.176 118.488L284.052 115.806C282.766 115.331 281.006 114.018 280.14 112.928L275.223 106.558C274.385 105.469 272.541 104.631 271.172 104.742L258.432 105.58C257.035 105.664 255.051 106.475 253.962 107.341L228.817 127.875C227.755 128.742 226.722 130.586 226.554 131.982L225.716 138.548C225.548 139.917 224.57 141.817 223.537 142.739L221.916 144.22C220.882 145.169 220.156 147.041 220.24 148.438L221.022 158.692C221.134 160.061 222.084 161.933 223.173 162.799L236.165 173.527C237.227 174.421 239.238 175.12 240.635 175.12H263.74C265.137 175.12 267.121 175.846 268.182 176.768L272.345 180.316C273.407 181.21 274.329 183.082 274.385 184.479L274.72 191.603C274.776 193 275.81 194.732 276.983 195.459L283.66 199.622C284.834 200.348 285.728 202.08 285.616 203.477L283.884 228.091C283.8 229.46 284.582 231.304 285.672 232.17L290.617 236.137C291.707 237.004 292.517 238.848 292.461 240.217L291.511 259.773C291.455 261.17 292.517 262.372 293.914 262.484L307.548 263.573C308.917 263.685 310.873 262.959 311.85 261.981L326.071 247.76C327.049 246.782 327.859 244.854 327.859 243.457V228.929C327.859 227.532 328.725 225.688 329.815 224.822L338.644 217.642C339.705 216.776 340.711 214.932 340.823 213.535L342.443 195.738C342.583 194.369 343.421 192.386 344.343 191.324L360.855 172.577C361.777 171.543 362.531 169.56 362.531 168.163V160.759C362.531 159.362 361.386 158.245 360.017 158.273L339.286 158.524C337.889 158.552 336.716 157.407 336.66 156.038L336.297 148.466C336.241 147.069 335.319 145.225 334.257 144.331L329.508 140.336C328.446 139.442 327.496 137.57 327.384 136.201L326.909 130.558C326.798 129.189 327.803 127.792 329.144 127.456L334.313 126.227C335.654 125.92 337.582 126.451 338.588 127.4L345.628 134.19C346.634 135.139 347.388 137.067 347.305 138.464L346.718 148.606C346.634 150.003 347.64 151.484 348.953 151.931L352.166 152.992C353.479 153.439 355.295 152.908 356.189 151.847L366.889 139.107C367.784 138.045 367.616 136.453 366.554 135.587L356.86 127.792C355.77 126.926 355.63 125.333 356.524 124.271L359.514 120.723C360.408 119.662 362.224 119.047 363.593 119.382L366.107 119.997C367.448 120.332 369.097 121.589 369.767 122.791L372.393 127.568C373.064 128.797 374.74 129.803 376.137 129.831L384.128 130.027C385.525 130.055 386.642 131.228 386.642 132.597V138.827C386.642 140.224 387.76 141.454 389.157 141.593L396.281 142.292C397.65 142.431 398.572 143.661 398.32 145.002L396.588 154.277C396.337 155.646 396.84 157.63 397.734 158.692L407.875 171.096C408.741 172.158 410.613 173.052 411.982 173.052H413.77C415.167 173.052 416.732 172.018 417.291 170.733L430.422 139.945C430.953 138.66 432.545 137.626 433.942 137.626H435.423C436.82 137.626 438.72 138.464 439.669 139.47L447.464 147.768C448.414 148.774 449.197 150.729 449.197 152.126V161.569C449.197 162.966 449.895 164.978 450.733 166.095L455.371 172.13C456.209 173.22 457.718 173.332 458.696 172.354L460.121 170.957C461.098 169.979 461.07 168.442 460.009 167.548L457.913 165.732C456.852 164.838 456.097 162.966 456.237 161.569L456.349 160.396C456.489 159.027 457.718 157.882 459.115 157.882H459.422C460.819 157.882 462.356 158.943 462.831 160.228L463.389 161.709C463.892 162.994 465.261 163.469 466.435 162.743L472.218 159.195C473.391 158.468 474.369 156.736 474.369 155.367V147.628C474.369 146.231 473.391 144.527 472.19 143.828L469.117 142.012C467.915 141.314 467.133 139.61 467.357 138.241L468.335 132.094C468.558 130.725 469.871 129.747 471.24 129.887L478.085 130.669C479.454 130.837 481.074 129.943 481.633 128.658L486.327 118.488C486.914 117.231 486.662 115.331 485.796 114.241L480.376 107.508C479.51 106.419 478.979 104.435 479.231 103.066L480.46 95.9137C480.683 94.5447 482.024 93.4272 483.393 93.4272H488.143C489.54 93.4272 490.602 92.2817 490.546 90.9127L489.009 60.8229C488.925 59.4259 489.791 57.6099 490.881 56.7718L496.077 52.7766C497.167 51.9384 499.207 51.3237 500.576 51.4355L514.21 52.5251C515.579 52.6369 516.808 53.8662 516.892 55.2351L517.758 68.2545C517.842 69.6515 518.959 71.2439 520.216 71.8027L522.452 72.8085C523.709 73.3952 525.189 72.8085 525.72 71.5233L533.264 53.5588C533.795 52.2737 535.219 50.6532 536.421 49.9548L545.11 44.8141C546.311 44.1156 548.406 43.5289 549.803 43.5289H551.591C552.877 43.5009 553.407 42.551 552.653 41.3776ZM500.268 104.184C499.765 105.469 499.71 107.592 500.156 108.905L501.637 113.236C502.084 114.549 503.593 115.722 504.962 115.834L506.61 115.974C507.979 116.085 509.739 115.247 510.522 114.074L513.511 109.604C514.293 108.458 514.908 106.363 514.908 104.994V89.7393C514.908 88.3424 514.154 86.3587 513.26 85.325L510.801 82.5311C509.879 81.4974 508.063 80.9945 506.75 81.4695L504.85 82.14C503.537 82.587 502.922 84.0119 503.509 85.2691L504.766 88.063C505.325 89.3202 505.381 91.4156 504.878 92.7008L500.268 104.184ZM358.508 214.485L357.865 214.066C356.692 213.312 355.044 213.619 354.177 214.709L343.952 227.812C343.086 228.901 342.834 230.829 343.393 232.114L344.986 235.886C345.516 237.171 347.081 238.4 348.45 238.652L349.26 238.792C350.629 239.043 352.669 238.596 353.814 237.814L358.592 234.461C359.737 233.651 360.659 231.891 360.659 230.494V218.341C360.631 216.972 359.681 215.239 358.508 214.485ZM459.618 193.615H466.127C467.524 193.615 468.642 192.469 468.642 191.1V188.251C468.642 186.854 467.496 185.708 466.127 185.708L461.825 185.652C460.428 185.625 459.059 184.507 458.752 183.166L458.081 180.149C457.774 178.807 456.516 177.215 455.259 176.628L448.275 173.332C447.017 172.745 445.397 173.22 444.643 174.393L444.223 175.064C443.497 176.237 443.19 178.277 443.581 179.618L445.313 185.68C445.704 187.021 447.017 188.614 448.247 189.229L454.84 192.525C456.097 193.112 458.249 193.615 459.618 193.615ZM494.681 185.82L492.669 181.685C492.054 180.428 490.574 179.953 489.344 180.596L482.024 184.451C480.795 185.094 480.432 186.574 481.214 187.72L482.611 189.787C483.393 190.933 485.126 192.19 486.439 192.581L496.944 195.627C498.285 196.018 500.268 195.738 501.358 194.984C502.447 194.258 502.447 192.972 501.33 192.162L497.838 189.62C496.692 188.754 495.267 187.077 494.681 185.82ZM501.106 244.156L504.655 238.428C505.381 237.255 506.079 235.16 506.163 233.763L507.113 221.023C507.225 219.654 506.75 217.502 506.079 216.301L498.285 202.052C497.614 200.823 495.966 200.097 494.625 200.432L493.982 200.6C492.641 200.935 491.523 202.332 491.523 203.701V204.008C491.523 205.405 490.685 206.523 489.624 206.523C488.562 206.523 486.969 205.684 486.048 204.651L485.628 204.176C484.706 203.142 482.835 202.499 481.466 202.723L473.308 204.092C471.939 204.315 470.234 205.489 469.536 206.69L467.217 210.574C466.518 211.775 464.87 213.172 463.613 213.703L454.477 217.53C453.192 218.061 452.158 219.626 452.158 221.023V241.334C452.158 242.731 453.164 244.407 454.365 245.078H454.393C455.622 245.748 457.662 245.916 458.975 245.469L463.11 244.016C464.423 243.569 465.82 242.088 466.239 240.775L466.295 240.636C466.714 239.322 468.167 238.009 469.536 237.73L474.369 236.78C475.738 236.501 477.526 237.199 478.364 238.317L482.89 244.296C483.729 245.413 485.545 246.307 486.942 246.307H497.251C498.648 246.279 500.38 245.329 501.106 244.156ZM514.908 249.939L514.21 249.38C513.12 248.514 511.5 248.682 510.606 249.744L508.985 251.671C508.091 252.733 506.303 253.99 504.99 254.437L501.078 255.834C499.765 256.309 499.011 257.762 499.402 259.103L499.765 260.36C500.157 261.701 501.581 262.567 502.95 262.288L506.666 261.562C508.035 261.282 509.544 260.332 510.019 259.438C510.522 258.544 511.947 257.538 513.232 257.231C514.517 256.924 515.858 255.583 516.193 254.242L516.277 253.878C516.612 252.593 515.998 250.805 514.908 249.939ZM525.217 236.277C524.547 236.277 523.29 236.026 522.452 235.718C521.585 235.411 520.3 236.137 519.602 237.311L518.205 239.658C517.478 240.859 517.674 242.675 518.596 243.681L519.211 244.379C520.133 245.413 521.753 245.497 522.787 244.603L527.005 240.915C528.039 239.993 528.347 238.568 527.676 237.758C527.005 236.976 525.888 236.277 525.217 236.277Z" fill="#DADADA"/>
<path d="M412.323 37.7756L409.602 31.5049C409.255 30.6777 408.294 30.3041 407.467 30.651L401.196 33.3727C400.796 33.5328 400.342 33.5595 399.942 33.3994L393.591 30.8911C392.764 30.5709 391.803 30.9712 391.483 31.7984L388.975 38.1491C388.815 38.5494 388.495 38.8696 388.121 39.0297L381.85 41.7515C381.023 42.0984 380.65 43.059 380.996 43.8862L383.718 50.1569C383.878 50.5571 383.905 51.0108 383.745 51.411L381.237 57.7618C380.916 58.589 381.317 59.5496 382.144 59.8698L388.495 62.3781C388.895 62.5382 389.215 62.8584 389.375 63.2319L392.097 69.5027C392.444 70.3298 393.404 70.7034 394.232 70.3565L400.502 67.6348C400.903 67.4747 401.356 67.448 401.756 67.6081L408.107 70.1164C408.934 70.4366 409.895 70.0363 410.215 69.2091L412.724 62.8584C412.884 62.4581 413.204 62.1379 413.577 61.9778L419.848 59.2561C420.675 58.9092 421.049 57.9486 420.702 57.1214L417.98 50.8507C417.82 50.4504 417.793 49.9968 417.954 49.5965L420.462 43.2458C420.782 42.4186 420.382 41.4579 419.555 41.1377L413.204 38.6295C412.83 38.4694 412.51 38.1758 412.323 37.7756Z" fill="#F4B503"/>
<path d="M402.128 59.8267C407.286 59.1499 410.919 54.4199 410.242 49.2619C409.565 44.104 404.835 40.4713 399.677 41.1481C394.519 41.8249 390.887 46.5549 391.563 51.7129C392.24 56.8708 396.97 60.5035 402.128 59.8267Z" fill="#F9CD15"/>
<path d="M471.188 98.8283C469.507 91.4102 462.889 85.86 454.938 85.8333C450.535 85.8066 446.532 87.4877 443.517 90.2628C439.381 83.325 431.829 78.682 423.184 78.6553C413.978 78.6019 405.973 83.8053 401.997 91.4369C400.076 90.2628 397.807 89.569 395.379 89.5423C389.642 89.5156 384.786 93.2514 383.131 98.4547L471.188 98.8283Z" fill="white"/>
<path d="M170.788 497.171C170.788 497.171 224.001 429.765 255.632 429.985C287.282 430.205 321.755 474.379 366.771 512.116C417.234 554.4 351.35 556.179 347.536 556.527C343.74 556.876 212.523 552.237 210.34 549.963C208.158 547.689 173.117 518.442 173.117 518.442L170.788 497.171Z" fill="#C5DDF9"/>
<path d="M443.779 499.204H446.035V474.285H443.779V499.204Z" fill="#355389"/>
<path d="M444.923 425.933L452.258 485.234H437.588L444.923 425.933Z" fill="#3C8F7C"/>
<path d="M449.598 463.724L439.128 472.709L439.531 469.446L449.268 461.102L449.598 463.724Z" fill="#50BFA5"/>
<path d="M447.984 450.724L441.585 452.924L441.878 450.486L447.709 448.487L447.984 450.724Z" fill="#50BFA5"/>
<path d="M137.58 455.308L144.145 508.265H131.034L137.58 455.308Z" fill="#3C8F7C"/>
<path d="M149.133 463.102L154.12 503.424H144.145L149.133 463.102Z" fill="#3C8F7C"/>
<path d="M159.107 475.093L164.095 515.434H154.12L159.107 475.093Z" fill="#3C8F7C"/>
<path d="M125.332 467.136L131.878 520.093H118.768L125.332 467.136Z" fill="#3C8F7C"/>
<path d="M150.105 483.602C206.949 493.064 292.233 578.055 357.182 578.055C422.131 578.055 436.121 557.719 460.491 562.029C484.842 566.319 517.555 578.055 517.555 578.055L34.8398 579.485C34.8398 579.485 93.2608 474.159 150.105 483.602Z" fill="#86B1F2"/>
<path d="M355.843 458.848L362.408 511.786H349.297L355.843 458.848Z" fill="#3C8F7C"/>
<path d="M371.447 474.433L376.435 514.756H366.459L371.447 474.433Z" fill="#3C8F7C"/>
<path d="M332.133 495.961L337.121 536.283H327.146L332.133 495.961Z" fill="#3C8F7C"/>
<path d="M343.594 470.656L350.141 523.613H337.03L343.594 470.656Z" fill="#3C8F7C"/>
<path d="M407.736 483.602C350.892 493.064 265.608 578.055 200.659 578.055C135.692 578.055 121.719 557.719 97.3496 562.029C72.9984 566.319 40.2856 578.055 40.2856 578.055L523.001 579.485C523.001 579.485 464.562 474.159 407.736 483.602Z" fill="#86B1F2"/>
<path d="M388.269 562.956H390.836V534.515H388.269V562.956Z" fill="#355389"/>
<path d="M389.564 479.366L397.926 547.028H381.184L389.564 479.366Z" fill="#3C8F7C"/>
<path d="M394.9 522.494L382.962 532.726L383.421 529.022L394.515 519.487L394.9 522.494Z" fill="#50BFA5"/>
<path d="M393.066 507.659L385.75 510.153L386.098 507.384L392.736 505.11L393.066 507.659Z" fill="#50BFA5"/>
<path d="M417.268 575.081H419.707V532.191H417.268V575.081Z" fill="#355389"/>
<path d="M417.84 455.73L429.905 542.298H405.792L417.84 455.73Z" fill="#3C8F7C"/>
<path d="M429.134 536.797L407.497 529.976L407.827 527.629L428.786 534.248L429.134 536.797Z" fill="#50BFA5"/>
<path d="M425.339 509.457L411 504.928L411.312 502.581L424.973 506.89L425.339 509.457Z" fill="#50BFA5"/>
<path d="M34.8398 579.485C34.8398 579.485 97.1665 525.355 177.518 522.036C204.492 520.918 314.989 543.307 408.03 560.892C411.935 561.625 420.389 568.868 424.349 569.62C468.394 577.909 509.45 579.651 522.726 580.182L34.8398 579.485Z" fill="#96D9C9"/>
<path d="M535.8 519.946L535.892 515.288C535.892 511.823 533.251 509.036 530.006 509.036C521.809 509.036 515.153 516.095 515.153 524.805V531.168C515.153 533.955 513.668 536.376 511.504 537.604C509.523 538.705 508.332 540.923 508.332 543.289V546.644C508.332 550.275 509.945 553.667 512.604 555.941C514.163 557.28 515.171 559.315 515.171 561.607V566.356C515.171 571.619 519.187 575.873 524.138 575.873H526.962C531.913 575.873 535.928 571.619 535.928 566.356C535.122 559.718 537.084 555.886 539.357 553.686C542.695 550.458 544.657 545.929 544.657 541.143V540.465C544.657 535.404 542.456 530.673 538.789 527.446C537.12 526.052 535.8 523.742 535.8 519.946Z" fill="#4E9B87"/>
<path d="M545.023 581.392C545.023 581.392 522.139 551.008 507.745 546.35C493.35 541.692 506.92 560.194 506.92 560.194C506.92 560.194 481.377 532.267 472.007 534.779C463.425 537.09 472.007 554.4 472.007 554.4C472.007 554.4 462.325 544.81 450.589 544.81C438.854 544.81 459.666 580.695 459.666 580.695L545.023 581.392Z" fill="#96D9C9"/>
<path d="M472.007 580.714C472.007 580.714 456.365 538.887 437.002 543.728C421.306 547.652 432.473 568.685 431.501 567.731C430.547 566.778 422.131 552.493 408.506 552.493C394.882 552.493 412.687 571.765 412.687 571.765C412.687 571.765 383.678 562.707 381.405 572.224C379.516 580.127 390.06 580.714 390.06 580.714H472.007Z" fill="#3C8F7C"/>
<path d="M114.495 572.902C114.586 572.389 114.623 571.839 114.623 571.307C114.623 565.256 108.957 560.342 101.952 560.342C94.9478 560.342 89.2817 565.256 89.2817 571.307C89.2817 571.857 89.3184 572.389 89.4101 572.902H114.495Z" fill="#3C8F7C"/>
<path d="M128.834 570.207C128.926 569.474 128.962 568.722 128.962 567.952C128.962 559.425 123.296 552.494 116.292 552.494C109.287 552.494 103.621 559.407 103.621 567.952C103.621 568.722 103.658 569.474 103.749 570.207H128.834Z" fill="#50BFA5"/>
<path d="M124.195 579.687C124.104 579.173 124.067 578.623 124.067 578.092C124.067 572.04 129.733 567.126 136.738 567.126C143.742 567.126 149.408 572.04 149.408 578.092C149.408 578.642 149.372 579.173 149.28 579.687H124.195Z" fill="#50BFA5"/>
<path d="M103.934 579.687C103.824 578.954 103.769 578.202 103.769 577.432C103.769 568.905 110.957 561.974 119.832 561.974C128.707 561.974 135.895 568.887 135.895 577.432C135.895 578.202 135.84 578.954 135.73 579.687H103.934Z" fill="#3C8F7C"/>
<path d="M116.255 561.974C111.818 561.974 107.857 564.174 105.253 567.603C103.915 567.292 102.503 567.108 101.036 567.108C93.1693 567.108 86.7881 572.022 86.7881 578.074C86.7881 578.624 86.8431 579.155 86.9348 579.669H130.356C130.448 578.935 130.503 578.184 130.503 577.413C130.503 568.905 124.122 561.974 116.255 561.974Z" fill="#50BFA5"/>
<path d="M61.3351 547.139C57.6128 541.308 56.916 534.285 56.9893 529.407C57.0627 524.108 58.0529 520.147 58.0529 520.11L57.7778 520.019C57.7595 520.055 56.7876 524.053 56.6959 529.389C56.6226 534.321 57.3194 541.418 61.0968 547.322L61.3351 547.139Z" fill="#3C8F7C"/>
<path d="M58.9692 519.12C58.8775 520.312 58.3457 521.32 57.5756 521.944C56.9154 521.119 56.5487 519.964 56.6404 518.772C56.7321 517.58 57.2638 516.571 58.034 515.948C58.6941 516.791 59.0608 517.928 58.9692 519.12Z" fill="#3C8F7C"/>
<path d="M56.439 521.889C57.0808 522.934 57.2642 524.108 57.0625 525.135C56.0906 524.896 55.1554 524.218 54.532 523.191C53.8902 522.146 53.7068 520.972 53.9085 519.946C54.8804 520.184 55.8156 520.862 56.439 521.889Z" fill="#3C8F7C"/>
<path d="M55.0268 525.153C56.0169 525.795 56.6771 526.785 56.9338 527.812C55.9986 528.069 54.8984 527.922 53.9266 527.28C52.9364 526.638 52.2762 525.648 52.0195 524.621C52.9364 524.346 54.0366 524.511 55.0268 525.153Z" fill="#3C8F7C"/>
<path d="M55.4669 529.682C56.2371 530.195 56.7322 531.057 56.8605 532.01C56.0537 532.359 55.1369 532.322 54.3667 531.809C53.5966 531.295 53.1015 530.434 52.9731 529.48C53.7616 529.132 54.6785 529.168 55.4669 529.682Z" fill="#3C8F7C"/>
<path d="M58.6762 524.31C59.5564 523.852 60.5283 523.815 61.3717 524.145C61.1517 525.044 60.5649 525.869 59.6848 526.327C58.8046 526.786 57.8327 526.822 56.9893 526.492C57.2093 525.594 57.7961 524.768 58.6762 524.31Z" fill="#3C8F7C"/>
<path d="M58.5844 527.446C59.4646 526.987 60.4365 526.95 61.2799 527.281C61.0599 528.179 60.4731 529.004 59.593 529.463C58.7128 529.921 57.741 529.958 56.8975 529.628C57.1175 528.711 57.7043 527.904 58.5844 527.446Z" fill="#3C8F7C"/>
<path d="M56.0171 534.652C56.4756 534.762 56.8606 535.073 57.099 535.477C56.7689 535.752 56.3289 535.862 55.8704 535.77C55.412 535.66 55.027 535.348 54.7886 534.945C55.1186 534.67 55.5587 534.542 56.0171 534.652Z" fill="#3C8F7C"/>
<path d="M59.7949 551.246C51.2683 549.211 44.7588 542.885 40.798 537.952C36.5072 532.598 34.1968 527.647 34.1785 527.61L33.8301 527.794C33.8484 527.849 36.1772 532.818 40.4863 538.209C44.4837 543.197 51.0666 549.578 59.7033 551.632L59.7949 551.246Z" fill="#3C8F7C"/>
<path d="M34.2882 525.722C35.1867 527.006 35.4801 528.546 35.2417 529.94C33.9031 529.775 32.6012 529.004 31.6844 527.703C30.7676 526.401 30.4925 524.879 30.7309 523.485C32.0878 523.668 33.3897 524.42 34.2882 525.722Z" fill="#3C8F7C"/>
<path d="M34.0679 531.021C35.5532 531.424 36.7268 532.396 37.3686 533.625C36.2133 534.377 34.7097 534.652 33.2244 534.248C31.7392 533.845 30.5656 532.873 29.9238 531.644C31.079 530.893 32.5827 530.636 34.0679 531.021Z" fill="#3C8F7C"/>
<path d="M35.3335 535.716C36.8372 535.367 38.3224 535.679 39.441 536.449C38.7258 537.66 37.4973 538.613 35.9937 538.961C34.4901 539.31 33.0048 538.998 31.8862 538.228C32.6014 537.018 33.8116 536.064 35.3335 535.716Z" fill="#3C8F7C"/>
<path d="M38.7261 539.969C40.2297 539.621 41.715 539.933 42.8336 540.703C42.1184 541.913 40.8899 542.867 39.3862 543.215C37.8826 543.563 36.3974 543.252 35.2788 542.482C35.9939 541.271 37.2225 540.336 38.7261 539.969Z" fill="#3C8F7C"/>
<path d="M37.7174 532.891C37.644 531.443 38.1208 530.068 38.9276 529.096C39.8261 529.866 40.4495 531.094 40.5229 532.561C40.5962 534.01 40.1195 535.385 39.3127 536.357C38.3958 535.569 37.7907 534.34 37.7174 532.891Z" fill="#3C8F7C"/>
<path d="M41.2557 537.293C41.164 535.844 41.6225 534.469 42.411 533.479C43.3278 534.23 43.9696 535.459 44.0613 536.907C44.1529 538.356 43.6945 539.731 42.906 540.722C41.9892 539.97 41.3474 538.741 41.2557 537.293Z" fill="#3C8F7C"/>
<path d="M44.1899 544.187C44.74 543.821 45.3818 543.747 45.9502 543.931C45.8585 544.536 45.5101 545.104 44.96 545.471C44.4099 545.838 43.7681 545.911 43.1997 545.728C43.2914 545.104 43.6398 544.536 44.1899 544.187Z" fill="#3C8F7C"/>
<path d="M82.386 563.312L82.7527 563.293C82.2209 553.538 85.7966 544.352 88.8955 538.355C92.2512 531.864 95.7901 527.628 95.8268 527.573L95.5518 527.298C95.5151 527.335 91.9578 531.607 88.5655 538.135C85.4666 544.168 81.8542 553.447 82.386 563.312Z" fill="#3C8F7C"/>
<path d="M97.4587 527.005C96.6152 528.417 95.405 529.297 94.1764 529.554C93.9747 528.069 94.2681 526.418 95.1116 524.988C95.9551 523.576 97.1653 522.696 98.3939 522.439C98.5956 523.924 98.3022 525.593 97.4587 527.005Z" fill="#3C8F7C"/>
<path d="M92.9479 528.709C93.0029 530.415 92.4895 532.01 91.646 533.147C90.7108 532.193 90.0874 530.726 90.0323 529.003C89.9773 527.297 90.4908 525.702 91.3342 524.565C92.2694 525.519 92.8929 526.986 92.9479 528.709Z" fill="#3C8F7C"/>
<path d="M89.3539 531.754C90.0507 533.221 90.179 534.89 89.8123 536.357C88.6204 536.045 87.5019 535.11 86.8051 533.643C86.1083 532.176 85.9799 530.507 86.3466 529.04C87.5385 529.352 88.6571 530.306 89.3539 531.754Z" fill="#3C8F7C"/>
<path d="M86.8784 539.253C87.2084 539.84 87.3185 540.537 87.2084 541.16C86.695 541.069 86.1999 540.72 85.8699 540.134C85.5398 539.547 85.4298 538.85 85.5398 538.227C86.0532 538.318 86.5483 538.667 86.8784 539.253Z" fill="#3C8F7C"/>
<path d="M85.8144 541.949C86.1445 542.536 86.2545 543.233 86.1445 543.856C85.631 543.765 85.136 543.416 84.8059 542.83C84.4758 542.243 84.3658 541.546 84.4758 540.923C84.9893 541.014 85.4844 541.363 85.8144 541.949Z" fill="#3C8F7C"/>
<path d="M93.9194 533.222C95.1846 533.24 96.2848 533.882 97 534.872C96.1931 535.844 95.0379 536.449 93.791 536.431C92.5258 536.412 91.4256 535.771 90.7104 534.78C91.4989 533.809 92.6541 533.204 93.9194 533.222Z" fill="#3C8F7C"/>
<path d="M91.8657 537.017C93.1309 537.035 94.2311 537.677 94.9462 538.667C94.1394 539.639 92.9842 540.244 91.7373 540.225C90.4721 540.207 89.3719 539.565 88.6567 538.575C89.4636 537.603 90.6188 536.998 91.8657 537.017Z" fill="#3C8F7C"/>
<path d="M88.4923 542.207C89.3174 542.225 90.0325 542.628 90.491 543.27C89.9592 543.894 89.2074 544.297 88.4006 544.279C87.5754 544.26 86.8603 543.857 86.4019 543.215C86.9153 542.592 87.6671 542.207 88.4923 542.207Z" fill="#3C8F7C"/>
<path d="M50.5722 579.321C50.5722 577.689 60.3823 579.614 61.2075 577.396C62.0326 575.177 52.8092 575.049 52.8092 572.06C52.8092 569.071 57.5034 571.161 60.2723 571.161C63.0228 571.161 54.8263 569.878 54.8263 568.814C54.8263 567.75 57.7052 568.319 57.7052 567.182C57.7052 566.064 42.5957 565.202 44.3743 562.451C46.1347 559.701 54.2578 563.258 56.4949 561.828C58.732 560.397 44.5944 558.839 44.2276 556.73C43.8792 554.603 54.6429 558.545 56.1649 557.024C57.6868 555.502 39.13 550.019 39.9185 545.985C40.6886 541.951 53.9828 551.137 57.3017 550.147C60.6207 549.157 40.5603 535.019 45.2178 529.518C49.8754 524.017 58.787 547.745 61.8309 546.902C64.8748 546.058 58.0169 531.902 61.1341 529.445C64.233 526.988 73.1447 549.377 73.7132 553.961C74.2816 558.564 75.4001 544.078 80.2777 542.372C85.1553 540.685 80.4244 551.339 81.2679 554.603C82.1114 557.849 86.0721 546.26 91.4081 547.122C96.7441 547.965 81.763 558.564 83.2483 561.681C84.7335 564.798 96.304 551.302 99.9164 554.933C103.547 558.564 85.9804 568.612 86.9523 571.363C87.9058 574.113 98.4494 569.401 101.475 572.426C104.501 575.452 90.1612 577.377 88.2542 577.377C86.3472 577.377 79.0858 579.761 86.1821 579.303C93.2418 578.844 50.5722 580.935 50.5722 579.321Z" fill="#3C8F7C"/>
<path d="M78.5361 581.191C78.5361 581.191 90.345 581.833 93.7923 579.651C97.2396 577.487 94.5258 575.8 94.5258 575.8C94.5258 575.8 105.454 575.561 105.418 572.976C105.399 570.39 102.741 570.537 102.741 570.537C102.741 570.537 108.26 566.796 107.233 564.449C105.656 560.855 96.6712 567.108 96.6712 567.108C96.6712 567.108 99.6234 563.606 97.2396 562.799C90.6934 560.562 78.5361 581.191 78.5361 581.191Z" fill="#50BFA5"/>
<path d="M107.232 564.448C108.259 566.777 102.739 570.536 102.739 570.536C102.739 570.536 106.718 570.481 106.076 572.993C105.435 575.506 95.4228 576.349 95.4228 576.349C95.4228 576.349 98.9251 577.028 95.4778 579.191C92.0305 581.355 78.5347 581.172 78.5347 581.172L107.232 564.448Z" fill="#96D9C9"/>
<path d="M30.1646 478.083C30.1829 477.442 31.0631 476.947 31.5398 477.515C31.9983 478.083 31.9799 477.698 32.4383 478.927C33.7402 482.429 35.6656 485.822 37.8844 488.792C42.1568 494.477 46.3926 497.337 51.1968 500.179C49.2165 495.723 47.8962 490.956 47.7312 486.152C47.6762 484.41 47.6945 482.594 48.4463 480.981C48.648 480.541 49.4548 480.632 49.5465 481.127C49.9499 483.603 49.3632 485.473 50.1516 489.911C52.0587 500.491 59.6318 511.713 66.9481 519.58C65.5545 506.267 64.8761 491.158 67.3699 477.735C67.7733 475.535 68.4334 473.444 69.0385 471.281C69.1852 470.767 69.9003 470.987 69.8087 471.501C69.6803 472.216 68.4884 481.457 68.4151 482.081C67.2598 492.294 67.4799 503.627 68.3967 513.95C74.0628 506.267 77.8585 497.3 79.6372 487.93C80.1689 485.161 80.2973 482.301 81.0308 479.587C81.1408 479.22 81.7459 479.165 81.8192 479.587C82.571 483.658 81.0674 490.864 79.9672 494.788C77.7301 502.728 74.1545 509.843 69.2769 516.187C69.0935 516.426 77.125 578.532 76.905 579.321C76.5382 580.641 74.2278 581.576 73.8794 579.229C73.7327 578.276 69.3136 540.52 67.3332 523.027C66.5814 522.605 66.1046 521.872 64.1609 519.69C59.6868 514.647 55.2493 508.394 52.297 502.471C50.5184 502.361 37.6827 496.127 31.3198 481.916C31.1364 481.512 30.3113 479.587 30.1829 479.147C30.0546 478.762 30.1462 478.45 30.1646 478.083Z" fill="#184655"/>
<path d="M71.3675 457.949C71.2208 456.042 71.1475 454.08 71.1475 452.1C71.1475 429.912 80.5542 411.942 92.1797 411.942C103.787 411.942 113.212 429.931 113.212 452.1C113.212 454.08 113.139 456.042 112.992 457.949H71.3675Z" fill="#50BFA5"/>
<path d="M47.5843 448.084C47.4376 445.389 47.3643 442.638 47.3643 439.833C47.3643 408.55 56.771 383.191 68.3965 383.191C80.022 383.191 89.4104 408.532 89.4104 439.815C89.4104 442.62 89.3371 445.371 89.1904 448.066H47.5843V448.084Z" fill="#96D9C9"/>
<path d="M55.2678 482.778C55.4145 480.871 55.4879 478.909 55.4879 476.929C55.4879 454.741 46.0811 436.771 34.4556 436.771C22.8484 436.771 13.4233 454.759 13.4233 476.929C13.4233 478.909 13.4967 480.871 13.6434 482.778H55.2678Z" fill="#96D9C9"/>
<path d="M88.934 482.778C89.1174 480.082 89.209 477.332 89.209 474.526C89.209 443.244 77.2718 417.884 62.5474 417.884C47.823 417.884 35.8857 443.244 35.8857 474.526C35.8857 477.332 35.9774 480.082 36.1608 482.778H88.934Z" fill="#50BFA5"/>
<path d="M68.4701 417.884C75.8232 417.884 82.4061 425.934 86.7335 438.55C88.9339 437.394 91.281 436.771 93.7198 436.771C106.776 436.771 117.374 454.759 117.374 476.928C117.374 478.909 117.283 480.871 117.118 482.778H45.0541C44.889 480.082 44.7974 477.332 44.7974 474.526C44.8157 443.244 55.396 417.884 68.4701 417.884Z" fill="#96D9C9"/>
<path d="M32.6573 570.335C32.7306 569.62 32.7673 568.868 32.7673 568.116C32.7673 559.737 27.9997 552.934 22.1136 552.934C16.2275 552.934 11.46 559.737 11.46 568.116C11.46 568.868 11.4966 569.602 11.57 570.335H32.6573Z" fill="#3C8F7C"/>
<path d="M44.7046 566.595C44.778 565.568 44.8146 564.541 44.8146 563.477C44.8146 551.65 40.0471 542.078 34.161 542.078C28.2749 542.078 23.5073 551.668 23.5073 563.477C23.5073 564.541 23.544 565.586 23.6173 566.595H44.7046Z" fill="#50BFA5"/>
<path d="M40.799 579.705C40.7256 578.989 40.689 578.238 40.689 577.486C40.689 569.106 45.4565 562.303 51.3426 562.303C57.2287 562.303 61.9963 569.106 61.9963 577.486C61.9963 578.238 61.9596 578.971 61.8863 579.705H40.799Z" fill="#50BFA5"/>
<path d="M23.7639 579.705C23.6722 578.678 23.6172 577.651 23.6172 576.588C23.6172 564.761 29.6683 555.189 37.113 555.189C44.5761 555.189 50.6089 564.779 50.6089 576.588C50.6089 577.651 50.5539 578.696 50.4622 579.705H23.7639Z" fill="#3C8F7C"/>
<path d="M34.1245 555.189C30.4022 555.189 27.0649 558.233 24.8645 563C23.7459 562.56 22.554 562.322 21.3255 562.322C14.7059 562.322 9.35156 569.125 9.35156 577.505C9.35156 578.256 9.38824 578.99 9.47992 579.723H45.9701C46.0618 578.696 46.0984 577.67 46.0984 576.606C46.0984 564.779 40.7441 555.189 34.1245 555.189Z" fill="#50BFA5"/>
<path d="M235.996 409.116V407.75H231.384V409.116H235.996Z" fill="#F7CC7F"/>
<path d="M241.096 439.785V407.592C241.096 405.468 239.366 403.738 237.242 403.738H230.537C228.413 403.738 226.683 405.468 226.683 407.592V439.785C226.683 441.909 228.413 443.639 230.537 443.639H237.242C239.366 443.639 241.096 441.909 241.096 439.785Z" fill="#F47458"/>
<path d="M233.904 443.639H237.758C239.609 443.639 241.096 442.82 241.096 441.818V405.559C241.096 404.557 240.034 403.738 238.213 403.738H233.904V443.639Z" fill="#B75742"/>
<path d="M234.531 427.8V418.515H232.832V427.8H234.531Z" fill="#1A1A1A"/>
<path d="M254.811 439.725V416.3C254.811 414.146 253.051 412.386 250.897 412.386H244.312C242.158 412.386 240.398 414.146 240.398 416.3V439.725C240.398 441.879 242.158 443.639 244.312 443.639H250.897C253.051 443.639 254.811 441.879 254.811 439.725Z" fill="#355389"/>
<path d="M247.62 443.639H251.473C253.324 443.639 254.811 443.002 254.811 442.213V413.842C254.811 413.053 253.324 412.416 251.473 412.416H247.62V443.639Z" fill="#5184CE"/>
<path d="M249.709 416.573V415.511H245.097V416.573H249.709Z" fill="#F7CC7F"/>
<path d="M248.262 431.239V423.957H246.563V431.239H248.262Z" fill="#1A1A1A"/>
<path d="M179.47 444.155H178.772V451.164H179.47V444.155Z" fill="#13375B"/>
<path d="M262.912 444.155H262.214V451.164H262.912V444.155Z" fill="#13375B"/>
<path d="M232.782 429.226H185.204C182.868 429.226 180.987 431.107 180.987 433.444V439.391C180.987 441.727 182.868 443.609 185.204 443.609H232.782C235.118 443.609 237 441.727 237 439.391V433.444C237.03 431.107 235.118 429.226 232.782 429.226Z" fill="#B75742"/>
<path d="M237.031 436.417V432.564C237.031 430.713 235.878 429.226 234.482 429.226H183.567C182.171 429.226 181.018 430.713 181.018 432.564V436.417H237.031Z" fill="#91342A"/>
<path d="M190.03 434.324H188.118V438.936H190.03V434.324Z" fill="#F7CC7F"/>
<path d="M229.9 434.324H227.988V438.936H229.9V434.324Z" fill="#F7CC7F"/>
<path d="M214.759 435.781H201.712V437.48H214.759V435.781Z" fill="#1A1A1A"/>
<path d="M224.407 414.813H193.609C191.09 414.813 189.088 416.846 189.088 419.334V424.675C189.088 427.193 191.121 429.196 193.609 429.196H224.407C226.925 429.196 228.928 427.163 228.928 424.675V419.365C228.958 416.846 226.925 414.813 224.407 414.813Z" fill="#4E9B87"/>
<path d="M228.958 422.035V418.151C228.958 416.3 228.139 414.813 227.138 414.813H190.878C189.877 414.813 189.058 416.3 189.058 418.151V422.004H228.958V422.035Z" fill="#3C8F7C"/>
<path d="M194.428 419.941H193.063V424.553H194.428V419.941Z" fill="#F7CC7F"/>
<path d="M259.848 443.609L226.865 443.578L226.319 428.893H259.848C263.914 428.893 267.221 432.2 267.221 436.266C267.221 440.332 263.914 443.609 259.848 443.609Z" fill="#FAE0B2"/>
<path d="M233.905 436.266C233.905 440.332 230.871 443.639 227.138 443.639C223.406 443.639 220.372 440.332 220.372 436.266C220.372 432.2 223.406 428.893 227.138 428.893C230.871 428.893 233.905 432.2 233.905 436.266Z" fill="#F7CC7F"/>
<path d="M240.884 444.306C240.58 444.063 240.52 443.639 240.732 443.305C242.977 440.149 243.584 436.781 242.583 433.322C242.037 431.38 241.066 429.924 240.55 429.196C240.338 428.892 240.368 428.498 240.641 428.255C240.944 427.982 241.43 428.012 241.703 428.376C242.31 429.196 243.311 430.804 243.948 432.897C244.768 435.628 245.01 439.785 241.915 444.185C241.673 444.488 241.218 444.549 240.884 444.306Z" fill="#F47458"/>
<path d="M252.96 444.306C252.657 444.063 252.596 443.639 252.809 443.305C255.054 440.149 255.661 436.781 254.66 433.322C254.114 431.38 253.143 429.924 252.627 429.196C252.414 428.892 252.445 428.498 252.718 428.255C253.021 427.982 253.507 428.012 253.78 428.376C254.387 429.196 255.388 430.804 256.025 432.897C256.844 435.628 257.087 439.785 253.992 444.185C253.719 444.488 253.264 444.549 252.96 444.306Z" fill="#F47458"/>
<path d="M232.721 434.93C232.357 432.624 231.113 431.44 230.112 430.864C228.655 430.014 226.744 429.893 225.075 430.53C223.467 431.137 222.192 432.563 221.707 434.202C221.282 435.658 221.586 437.175 222.556 438.419C224.165 440.513 226.653 440.179 227.866 439.663C228.959 439.178 229.778 438.055 229.96 436.811C230.112 435.779 229.626 434.808 228.746 434.232C227.866 433.655 226.744 433.655 225.894 434.232C225.257 434.657 224.62 435.446 225.227 436.993L225.712 436.811C225.318 435.84 225.469 435.142 226.167 434.687C226.865 434.232 227.745 434.232 228.473 434.687C229.202 435.142 229.566 435.931 229.444 436.75C229.293 437.843 228.595 438.814 227.654 439.208C226.592 439.663 224.377 439.967 222.951 438.146C221.859 436.72 221.919 435.324 222.192 434.414C222.617 432.927 223.801 431.622 225.227 431.076C226.774 430.469 228.504 430.591 229.839 431.349C231.113 432.078 231.932 433.352 232.175 435.051C232.509 437.236 232.114 438.965 230.961 440.209C228.807 442.546 224.256 442.516 223.467 442.485C223.74 442.667 224.043 442.849 224.347 443.001H224.377C225.773 443.001 229.293 442.758 231.326 440.543C232.63 439.178 233.085 437.297 232.721 434.93Z" fill="#F47458"/>
<path d="M223.892 419.941H222.526V424.553H223.892V419.941Z" fill="#F7CC7F"/>
<path d="M213.119 421.398H203.834V423.097H213.119V421.398Z" fill="#1A1A1A"/>
<path d="M200.857 414.213L185.173 443.949L185.63 444.19L201.313 414.453L200.857 414.213Z" fill="black"/>
<path d="M218.468 413.985L218.012 414.225L234.11 444.74L234.566 444.5L218.468 413.985Z" fill="black"/>
<path d="M251.609 411.996L251.131 412.19L264.174 444.197L264.652 444.002L251.609 411.996Z" fill="black"/>
<path d="M235.973 403.458L235.486 403.63L249.781 444.146L250.267 443.974L235.973 403.458Z" fill="black"/>
<path d="M266.099 443.609H175.708V444.55H266.099V443.609Z" fill="#13375B"/>
<path d="M112.169 544.772C112.169 544.772 181.139 556.212 181.988 555.726C182.807 555.241 191.758 516.675 191.758 516.675C191.758 516.675 134.714 506.419 133.804 506.419C132.894 506.419 120.483 516.341 120.301 517.009C120.119 517.676 112.169 544.772 112.169 544.772Z" fill="#183658"/>
<path d="M322.596 554.572C324.265 554.724 407.799 552.934 407.799 552.934L401.518 533.727C401.518 533.727 389.927 516.219 383.828 516.522C377.699 516.856 341.318 510.939 335.037 515.309C328.756 519.678 323.142 516.189 320.138 526.627C317.165 537.034 314.828 538.218 317.165 544.498C319.441 550.779 322.596 554.572 322.596 554.572Z" fill="#183658"/>
<path d="M147.003 580.091C162.705 580.091 175.434 567.362 175.434 551.66C175.434 535.958 162.705 523.229 147.003 523.229C131.301 523.229 118.572 535.958 118.572 551.66C118.572 567.362 131.301 580.091 147.003 580.091Z" fill="#1A1A1A"/>
<path d="M147.003 571.443C157.929 571.443 166.786 562.585 166.786 551.659C166.786 540.733 157.929 531.876 147.003 531.876C136.077 531.876 127.219 540.733 127.219 551.659C127.219 562.585 136.077 571.443 147.003 571.443Z" fill="#9E9DA2"/>
<path d="M147.002 564.889C154.309 564.889 160.232 558.966 160.232 551.659C160.232 544.353 154.309 538.43 147.002 538.43C139.696 538.43 133.773 544.353 133.773 551.659C133.773 558.966 139.696 564.889 147.002 564.889Z" fill="#D8D9DD"/>
<path d="M365.926 580.091C381.628 580.091 394.357 567.362 394.357 551.66C394.357 535.958 381.628 523.229 365.926 523.229C350.224 523.229 337.495 535.958 337.495 551.66C337.495 567.362 350.224 580.091 365.926 580.091Z" fill="#1A1A1A"/>
<path d="M365.927 571.443C376.853 571.443 385.711 562.585 385.711 551.659C385.711 540.733 376.853 531.876 365.927 531.876C355.001 531.876 346.144 540.733 346.144 551.659C346.144 562.585 355.001 571.443 365.927 571.443Z" fill="#9E9DA2"/>
<path d="M352.697 551.659C352.697 558.972 358.614 564.889 365.927 564.889C373.239 564.889 379.156 558.972 379.156 551.659C379.156 544.347 373.239 538.43 365.927 538.43C358.614 538.399 352.697 544.347 352.697 551.659Z" fill="#D8D9DD"/>
<path d="M431.194 524.563C428.797 508.724 421.029 505.386 398.029 500.774C372.663 495.707 340.469 479.17 340.469 479.17C340.469 479.17 285.549 452.256 272.107 449.161C258.665 446.066 225.561 446.946 197.767 447.189C169.973 447.401 153.649 455.138 139.539 466.153C125.43 477.167 100.943 485.572 100.943 485.572L96.4829 486.361C91.9011 487.18 88.5938 491.155 88.5938 495.798V535.122C88.5938 539.582 91.5977 543.466 95.9064 544.619L111.988 548.867C113.293 549.08 114.506 548.169 114.658 546.834C116.418 530.753 130.315 518.524 146.913 518.524C164.542 518.555 179.015 533.028 179.015 550.688C179.015 552.69 178.833 554.663 178.469 556.544C178.105 558.516 179.622 560.306 181.625 560.306H329.546C332.428 560.306 334.643 557.788 334.279 554.936C334.097 553.57 334.006 552.175 334.006 550.748C333.945 533.332 348.055 518.889 365.471 518.524C383.525 518.16 398.272 532.664 398.272 550.657C398.272 551.841 398.211 553.024 398.09 554.177C397.726 557.454 400.275 560.306 403.552 560.306H424.822C428.675 560.306 431.831 557.181 431.831 553.297V532.695C431.77 530.024 431.619 527.263 431.194 524.563Z" fill="#F7CC7F"/>
<path d="M89.534 500.471H107.042C108.529 500.471 109.56 501.988 108.984 503.384L107.011 508.087C105.13 512.577 100.761 515.49 95.906 515.49H89.534C88.29 515.49 87.2583 514.489 87.2583 513.215V502.746C87.2583 501.472 88.29 500.471 89.534 500.471Z" fill="#CF283C"/>
<path d="M403.338 507.754C412.987 509.241 424.093 518.374 424.093 518.374C426.763 521.226 424.548 525.868 420.664 525.626L401.851 524.442C397.937 524.2 394.599 521.529 393.537 517.767C391.686 511.425 393.234 506.206 403.338 507.754Z" fill="#EAFCFC"/>
<path d="M88.6844 536.609C87.4707 536.579 86.6211 537.792 87.0763 538.915C88.3203 542.101 91.0208 544.589 94.4799 545.499L112.504 550.263C113.96 550.506 115.325 549.474 115.507 547.987C115.841 544.923 116.569 542.01 117.631 539.249C117.996 538.308 117.298 537.307 116.327 537.276L88.6844 536.609Z" fill="#EAB054"/>
<path d="M398.393 544.013C397.028 543.982 395.966 545.166 396.148 546.531C396.33 548.048 396.451 549.566 396.451 551.143C396.451 552.478 396.391 553.753 396.239 555.058C395.844 558.699 398.666 561.885 402.307 561.885H425.914C430.192 561.885 433.682 558.395 433.682 554.117V548.018C433.682 546.288 432.286 544.862 430.557 544.832L398.393 544.013Z" fill="#EAB054"/>
<path opacity="0.5" d="M340.498 488.303C340.195 488.121 308.912 470.978 288.187 461.359C267.645 451.862 244.737 452.863 243.766 452.893C241.126 452.833 186.296 451.649 169.456 456.899C152.464 462.178 130.375 486.301 129.434 487.332L129.191 487.606L135.139 515.521L135.776 515.491C153.071 514.52 166.301 519.132 174.068 528.811C179.925 536.124 180.653 543.861 180.653 543.952L180.713 544.62L243.068 546.228H243.796L244.555 546.258L331.456 547.957V547.199C331.881 518.95 340.832 489.487 340.893 489.183L341.075 488.607L340.498 488.303ZM182.018 543.133C181.715 541.039 180.41 534.424 175.252 527.931C169.699 520.952 158.411 512.881 136.322 513.973L130.8 488.061C133.348 485.299 154.285 463.21 169.911 458.325C185.538 453.44 236.362 454.259 243.068 454.38V544.711L182.018 543.133ZM329.939 546.41L244.524 544.741V454.38C248.529 454.259 269.072 454.137 287.581 462.724C306.788 471.615 335.067 487.029 339.285 489.335C338.01 493.553 330.485 520.376 329.939 546.41Z" fill="#FEB546"/>
<path opacity="0.5" d="M87.0757 538.916C88.3197 542.102 91.0203 544.59 94.4793 545.501L112.503 550.264C113.959 550.507 115.325 549.476 115.507 547.989C115.628 546.805 115.81 545.652 116.053 544.53L87.0757 538.916Z" fill="#FEB546"/>
<path opacity="0.5" d="M396.391 552.842C396.36 553.601 396.3 554.329 396.209 555.088C395.814 558.729 398.636 561.915 402.277 561.915H425.884C430.162 561.915 433.652 558.425 433.652 554.147V552.873H396.391V552.842Z" fill="#FEB546"/>
<path d="M335.371 552.843C335.371 551.235 335.492 549.657 335.705 548.11C335.978 546.259 334.582 544.56 332.701 544.499L178.832 540.737C177.164 540.706 175.95 542.284 176.405 543.923C177.194 546.744 177.619 549.718 177.619 552.783C177.619 554.816 177.437 556.788 177.073 558.73C176.708 560.732 178.226 562.614 180.259 562.614H330.819C333.763 562.614 336.008 560.004 335.613 557.061C335.462 555.665 335.371 554.239 335.371 552.843Z" fill="#EAB054"/>
<path opacity="0.5" d="M335.371 552.843C335.371 552.813 335.371 552.782 335.371 552.752H177.65C177.65 554.785 177.468 556.757 177.103 558.699C176.739 560.702 178.257 562.583 180.289 562.583H330.85C333.793 562.583 336.039 559.974 335.644 557.03C335.462 555.665 335.371 554.239 335.371 552.843Z" fill="#FEB546"/>
<path d="M147.61 490.944L232.631 491.733C232.631 491.733 237.85 491.581 238.548 486.696C239.245 481.811 239.185 460.813 239.185 460.813C239.185 460.813 238.578 456.596 234.542 456.535C232.084 456.505 211.542 455.048 191.577 457.476C175.283 459.448 160.202 466.912 148.763 478.352L142.725 484.39C142.725 484.39 138.659 490.853 147.61 490.944Z" fill="#EAFCFC"/>
<path d="M248.651 463.484V485.482C248.651 488.335 250.836 490.701 253.628 490.792L320.442 493.493C321.99 493.554 323.477 492.856 324.357 491.551C325.57 489.791 325.692 486.878 319.714 482.964C309.307 476.198 282.817 461.512 273.017 460.116C266.766 459.206 258.604 458.811 253.506 458.659C250.866 458.568 248.651 460.753 248.651 463.484Z" fill="#EAFCFC"/>
<path d="M160.203 480.657C160.203 480.657 215.608 474.346 216.792 475.438C217.975 476.531 225.682 494.554 227.078 499.47L161.811 498.863L157.229 491.945L160.203 480.657Z" fill="#B75742"/>
<path d="M277.689 485.633C277.689 485.633 282.787 491.671 284.243 498.165L282.635 500.774L279.419 497.376L277.689 485.633Z" fill="#263D60"/>
<path d="M283.121 469.795C282.15 463.423 276.385 458.841 270.377 461.936C269.012 462.634 267.191 464.03 266.251 465.243C263.732 468.49 263.065 472.495 260.455 475.651C261.426 476.379 262.579 477.138 263.944 477.866L265.583 475.681L265.037 478.382C269.072 480.324 274.777 481.902 282.605 481.871C283.576 477.471 283.637 473.193 283.121 469.795Z" fill="#1A1A1A"/>
<path d="M269.618 483.812C269.618 483.812 263.822 483.448 261.547 485.936C259.241 488.424 266.644 508.177 267.039 511.333C267.464 514.519 263.61 520.83 263.61 520.83C263.61 520.83 279.54 528.294 283.454 525.715C283.454 525.715 282.817 500.258 282.423 498.012C281.998 495.737 278.539 486.512 277.689 485.602C276.84 484.722 269.618 483.812 269.618 483.812Z" fill="#355389"/>
<path d="M271.529 476.075C271.529 476.075 271.499 476.257 271.438 476.53C271.165 477.926 270.194 482.538 269.527 483.813C268.707 485.36 272.318 490.245 275.777 489.638C276.809 489.456 274.897 485.148 274.988 484.693C275.17 483.813 275.413 482.629 275.656 481.385C275.808 480.687 275.929 479.989 276.05 479.322C276.415 477.441 276.718 475.924 276.718 475.924L271.529 476.075Z" fill="#F7A491"/>
<path d="M160.627 481.72C160.567 481.325 160.415 480.991 160.202 480.658L151.98 488.911C151.98 488.911 145.79 498.712 159.414 498.863L163.146 498.894L160.627 481.72Z" fill="#B75742"/>
<path opacity="0.3" d="M271.439 476.531C271.5 476.228 271.53 476.076 271.53 476.076L276.719 475.955C276.719 475.955 276.416 477.472 276.051 479.353C275.93 480.021 275.778 480.688 275.657 481.386C274.868 481.265 274.018 480.87 273.169 480.142C272.259 479.353 271.652 478.382 271.288 477.351C271.348 477.047 271.409 476.744 271.439 476.531Z" fill="#F47458"/>
<path d="M275.019 464.302C275.019 464.302 272.591 464.029 271.044 466.002C269.527 467.974 267.858 474.103 271.681 477.41C275.474 480.748 279.236 476.986 279.813 472.98C280.359 469.006 280.572 464.181 275.019 464.302Z" fill="#F7A491"/>
<path d="M280.906 472.951C280.451 473.831 279.693 474.316 279.207 474.043C278.722 473.77 278.691 472.83 279.146 471.95C279.602 471.07 280.36 470.584 280.846 470.857C281.331 471.13 281.361 472.071 280.906 472.951Z" fill="#F7A491"/>
<path d="M275.292 463.666C275.292 463.666 272.015 469.492 269.709 469.735C267.373 470.008 267.069 473.103 267.069 473.103C267.069 473.103 267.919 465.972 270.225 464.607C272.531 463.241 275.292 463.666 275.292 463.666Z" fill="#1A1A1A"/>
<path d="M270.317 471.221C270.499 472.253 270.135 473.194 269.467 473.345C268.8 473.467 268.102 472.738 267.92 471.707C267.738 470.675 268.102 469.735 268.769 469.583C269.437 469.461 270.135 470.19 270.317 471.221Z" fill="#F7A491"/>
<path d="M262.093 512.032C262.093 511.971 264.278 502.656 265.158 500.592C266.038 498.529 269.497 488.941 269.497 488.941L265.036 487.97C265.036 487.97 262.154 495.464 260.849 498.863C259.544 502.261 260.09 508.512 260.03 510.272C260.03 510.302 259.848 511.758 259.848 511.789C259.817 511.971 259.757 512.153 259.757 512.183C259.696 512.274 259.544 512.851 259.544 512.911C259.544 512.972 259.393 513.154 259.362 513.245C259.301 513.336 259.18 514.52 259.15 514.732C259.119 514.914 259.21 515.369 259.21 515.369L259.15 516.158C259.119 516.735 259.726 516.583 259.726 516.583C259.726 516.856 259.817 517.008 259.969 517.068C260.121 517.129 260.303 517.068 260.333 517.099C260.363 517.099 260.363 517.19 260.363 517.19C260.333 517.372 260.546 517.493 260.667 517.524C260.788 517.554 261.031 517.463 261.092 517.372C261.152 517.281 261.213 517.311 261.213 517.311C261.334 517.433 261.85 517.402 261.972 517.25C262.093 517.099 262.184 516.249 262.245 516.158C262.305 516.067 262.396 515.946 262.427 515.824C262.457 515.703 262.852 514.823 262.882 514.671C262.912 514.52 262.639 513.913 262.609 513.549C262.548 513.185 262.214 512.669 262.123 512.487C262.063 512.456 262.093 512.274 262.093 512.032Z" fill="#F48C7F"/>
<path d="M276.84 474.922L273.078 474.74C273.078 474.74 273.078 476.166 274.746 476.288C276.749 476.47 276.84 474.922 276.84 474.922Z" fill="white"/>
<path d="M256.329 477.805L254.964 486.786C254.964 486.786 259.91 497.467 262.883 496.557C265.371 495.768 263.824 486.331 263.824 486.331C263.824 486.331 262.459 481.264 262.883 478.715C263.278 476.136 256.329 477.805 256.329 477.805Z" fill="#F7A491"/>
<path d="M262.883 478.686C263.277 476.137 256.329 477.806 256.329 477.806L256.208 478.565C256.42 479.05 256.663 479.475 256.966 479.809C258.514 481.478 260.941 482.509 263.065 482.57C262.853 481.174 262.731 479.718 262.883 478.686Z" fill="#F47458"/>
<path d="M255.176 465.092C254.994 465.032 253.598 475.318 256.208 478.14C258.817 480.962 263.945 481.902 265.766 479.657C267.799 477.199 267.677 466.124 263.611 463.211C259.545 460.329 255.176 465.092 255.176 465.092Z" fill="#F7A491"/>
<path d="M262.094 457.75C258.938 458.387 256.905 460.329 256.147 461.148C254.721 461.33 252.779 462.119 250.776 465.457C248.318 469.553 250.139 474.104 252.991 476.35C255.874 478.565 255.813 481.144 255.813 481.144L256.268 479.809C256.602 478.807 256.754 477.715 256.632 476.683C256.572 476.046 256.42 475.348 256.177 474.802C255.479 473.315 257.664 472.314 258.271 471.07C258.726 470.129 258.756 467.945 259.515 466.367L260.395 465.153C260.395 465.153 262.428 463.575 264.43 464C266.403 464.425 266.13 456.9 262.094 457.75Z" fill="#13375B"/>
<path d="M258.12 472.89C258.151 474.134 257.574 475.166 256.846 475.196C256.118 475.196 255.511 474.195 255.511 472.951C255.511 471.707 256.057 470.675 256.785 470.645C257.513 470.615 258.12 471.616 258.12 472.89Z" fill="#F7A491"/>
<path d="M262.398 475.773L266.343 475.561C266.343 475.561 266.343 477.078 264.583 477.199C262.489 477.381 262.398 475.773 262.398 475.773Z" fill="white"/>
<path d="M253.841 486.423C254.205 485.756 254.873 485.3 255.631 485.209C258.939 484.906 268.072 484.906 272.745 492.977C273.473 494.252 274.019 495.617 274.383 497.043L275.354 501.079L251.323 500.29L251.353 497.62C251.171 493.736 251.99 489.852 253.841 486.423Z" fill="#3C8F7C"/>
<path d="M310.885 502.565L314.374 488.395C314.617 487.454 314.04 486.483 313.069 486.24C312.129 485.997 311.158 486.574 310.915 487.545L307.274 502.383L310.885 502.565Z" fill="#1A1A1A"/>
<path d="M301.872 502.14C302.874 501.533 303.663 501.018 304.209 500.684C304.239 500.654 306.758 499.44 306.818 499.44C307.182 499.318 307.486 499.197 307.546 499.197C307.728 499.197 308.821 498.833 308.912 498.772C309.003 498.742 309.458 498.742 309.64 498.742C309.822 498.742 311.855 497.71 312.189 497.528C312.523 497.376 313.13 496.77 313.13 496.77L314.434 496.011C315.405 495.465 314.525 494.646 314.525 494.646C314.98 494.373 315.102 494.069 315.041 493.766C314.95 493.462 314.707 493.22 314.677 493.159C314.677 493.098 314.798 493.007 314.798 493.007C315.102 492.855 315.102 492.4 315.011 492.158C314.92 491.915 314.556 491.642 314.343 491.642C314.161 491.611 314.131 491.52 314.131 491.52C314.161 491.187 313.645 490.428 313.281 490.398C312.917 490.367 311.461 491.096 311.279 491.096C311.097 491.096 310.793 491.035 310.581 491.156C310.368 491.247 308.578 491.49 308.275 491.642C307.971 491.793 307.304 492.795 306.818 493.22C306.333 493.675 305.817 494.767 305.665 495.07C305.605 495.192 305.271 495.374 304.907 495.556C304.846 495.617 293.892 499.561 287.429 501.503L301.872 502.14Z" fill="#F7A491"/>
<path d="M267.737 500.774C267.07 496.709 266.22 492.43 265.31 490.428C263.338 486.089 256.693 483.509 253.446 486.21C251.716 487.636 252.445 494.494 253.931 500.41L267.737 500.774Z" fill="#50BFA5"/>
<path d="M171.216 477.199C171.216 477.199 163.085 476.986 160.323 478.837C157.562 480.658 157.896 498.864 157.896 498.864L160.566 499.379C160.566 499.379 161.537 511.911 163.631 512.548C165.724 513.216 179.379 508.998 182.231 505.478C185.083 501.959 176.223 475.985 176.223 475.985L171.216 477.199Z" fill="#3C8F7C"/>
<path d="M185.69 462.755C186.388 460.57 186.873 453.925 187.025 451.65C186.904 451.498 186.327 450.527 186.388 448.615C186.418 447.28 185.508 445.065 186.358 445.217C187.207 445.369 187.268 447.675 187.784 447.28C188.299 446.886 188.542 442.031 189.301 442.152C190.09 442.274 189.544 446.855 189.999 446.491C190.454 446.127 190.484 441.91 191.577 442.122C192.669 442.304 191.091 447.068 191.668 447.189C192.244 447.28 193.185 444.276 194.065 444.428C194.945 444.58 192.608 448.494 192.881 448.312C193.154 448.1 195.036 446.491 195.339 446.855C195.703 447.25 191.334 451.862 191.334 453.045C191.698 456.11 192.426 461.632 191.425 465.122C190.211 469.37 187.116 478.837 187.116 478.837L180.532 477.259C180.532 477.32 184.84 465.365 185.69 462.755Z" fill="#F7A491"/>
<path d="M188.483 448.22C188.817 448.372 189.09 448.584 189.303 448.857C189.333 448.918 190.152 449.677 189.94 450.951C189.818 450.162 189.636 449.282 188.483 448.22Z" fill="#F48C7F"/>
<path d="M146.335 480.748C146.335 480.748 146.517 479.686 145.607 478.048C145.03 476.986 144.878 474.862 144.272 475.317C143.665 475.772 144.575 477.653 144.029 477.532C143.483 477.411 141.359 473.618 140.843 474.042C140.297 474.467 142.542 477.896 142.026 477.805C141.541 477.714 139.842 474.346 139.083 474.922C138.324 475.499 141.419 478.685 141.025 479.019C140.63 479.322 138.719 477.289 138.112 477.744C137.505 478.23 140.843 480.445 140.539 480.384C140.236 480.323 138.173 479.777 138.082 480.202C137.96 480.657 142.299 482.023 142.785 482.994C143.27 483.965 150.704 493.523 152.828 493.553C154.952 493.553 164.48 487.12 165.178 484.996C165.876 482.903 164.996 480.688 163.63 480.384C162.235 480.081 153.344 486.483 152.919 486.392C152.494 486.301 146.335 480.748 146.335 480.748Z" fill="#F7A491"/>
<path d="M144.12 478.442C143.908 478.715 143.787 479.049 143.696 479.383C143.696 479.443 143.362 480.536 144.181 481.507C143.938 480.779 143.635 479.959 144.12 478.442Z" fill="#F48C7F"/>
<path d="M166.393 493.978C166.393 493.978 174.95 500.775 175.89 502.171C176.588 503.202 174.252 514.915 174.252 514.915C174.252 514.915 170.853 515.006 169.306 513.822C169.306 513.822 170.247 505.721 169.822 505.417C169.427 505.114 160.021 500.927 160.021 500.927L160.628 496.133L166.393 493.978Z" fill="#B75742"/>
<path d="M182.839 469.491C182.839 469.491 184.325 469.765 189.393 475.287L183.506 487.272L178.075 477.32L182.839 469.491Z" fill="#9BC1F9"/>
<path d="M173.28 477.926C173.28 477.926 177.134 477.077 178.499 476.409C179.865 475.742 192.396 505.295 189.241 506.327C182.626 508.512 165.482 514.277 165.482 514.277C165.482 514.277 164.997 512.578 165.604 509.452C166.696 504.051 166.332 492.005 166.089 489.912C165.968 488.668 158.655 492.248 158.655 492.248L155.772 482.902C155.772 482.902 164.117 480.05 166.908 479.17C167.727 478.897 173.28 477.926 173.28 477.926Z" fill="#9BC1F9"/>
<path d="M187.572 496.223C185.995 491.338 175.648 477.35 175.557 477.198L177.256 476.045C177.62 476.592 186.086 488.486 187.724 493.644L187.572 496.223Z" fill="#3C8F7C"/>
<path d="M165.088 505.265L164.026 503.9C164.087 503.839 171.308 498.074 171.521 491.672C171.703 485.209 166.514 478.988 166.453 478.928L167.788 477.805C168.031 478.078 173.493 484.571 173.28 491.732C173.038 498.924 165.422 505.022 165.088 505.265Z" fill="#3C8F7C"/>
<path d="M171.429 458.174C171.429 458.174 174.494 455.898 177.376 459.6C179.682 462.543 179.379 461.603 180.532 463.09C181.685 464.546 183.414 464.667 183.657 467.125C183.93 469.553 182.838 470.068 182.838 470.068C182.838 470.068 184.082 471.859 183.141 473.922C182.201 475.985 179.561 477.988 177.164 477.957C177.164 477.957 173.826 480.294 170.155 479.748C166.483 479.202 167.727 479.08 166.271 479.232C164.814 479.384 160.657 477.806 160.991 474.832C160.991 474.832 158.291 472.223 160.354 469.644C162.447 467.064 163.57 465.244 164.571 461.967C165.573 458.69 169.73 457.598 171.429 458.174Z" fill="#1A1A1A"/>
<path d="M175.526 474.984C175.526 474.984 175.859 479.292 176.314 479.656C176.77 480.021 177.407 480.627 176.921 481.72C176.436 482.812 173.796 482.448 172.522 481.963C171.308 481.507 170.458 480.567 170.458 480.567L170.337 473.679L175.526 474.984Z" fill="#F7A491"/>
<path d="M174.008 476.956C173.158 476.744 171.641 476.349 170.336 474.65L170.306 473.679L175.525 474.984C175.525 474.984 175.616 476.046 175.738 477.138C175.04 477.199 174.402 477.047 174.008 476.956Z" fill="#F48C7F"/>
<path d="M168.182 469.916C168.182 469.916 167.788 467.397 166.271 468.065C164.753 468.733 166.362 472.434 167.636 472.161C168.941 471.888 168.182 469.916 168.182 469.916Z" fill="#F7A491"/>
<path d="M172.886 460.116C172.886 460.116 175.313 459.812 176.77 461.572C178.226 463.332 180.138 468.612 178.499 472.556C176.83 476.501 174.13 475.864 173.007 475.621C171.884 475.348 169.669 474.741 168.213 471.373C166.726 467.974 166.665 460.055 172.886 460.116Z" fill="#F7A491"/>
<path d="M222.526 500.411L227.016 521.772L219.279 521.013L215.577 501.473L222.526 500.411Z" fill="#F7A491"/>
<path d="M223.862 501.018L215.578 501.473C215.578 501.473 214.971 495.738 214.819 493.007C214.637 489.7 214.698 485.391 215.123 485.452C216.276 485.664 217.823 486.18 218.764 487.394C222.102 491.551 223.862 501.018 223.862 501.018Z" fill="#5184CE"/>
<path d="M218.401 492.278C218.613 493.279 223.862 521.225 223.862 521.225C211.452 528.052 201.955 522.226 201.955 522.226C201.955 522.226 202.44 503.444 201.803 500.835C201.378 499.105 199.861 487.757 200.953 487.393C202.38 486.907 204.534 486.179 206.324 485.906C207.872 485.663 213.849 485.269 214.941 485.572C214.941 485.542 217.581 488.06 218.401 492.278Z" fill="#EAFCFC"/>
<path d="M213.94 465.637C213.94 465.637 218.976 465.546 218.552 469.733C218.552 469.733 222.284 471.19 219.796 474.558C219.796 474.558 222.466 478.169 217.823 481.658C217.823 481.658 216.579 486.513 211.36 484.207C211.36 484.207 209.813 485.36 207.659 483.813C205.504 482.265 205.231 481.355 205.231 481.355C205.231 481.355 200.498 480.444 201.135 476.105C201.135 476.105 198.647 473.981 202.409 471.311C202.409 471.311 202.349 465.334 207.416 466.123C207.446 466.092 210.42 461.541 213.94 465.637Z" fill="#13375B"/>
<path d="M206.08 475.437C205.959 476.499 205.261 477.288 204.533 477.197C203.804 477.106 203.349 476.166 203.471 475.104C203.592 474.042 204.29 473.253 205.018 473.344C205.746 473.435 206.232 474.375 206.08 475.437Z" fill="#F7A491"/>
<path d="M217.884 478.655C217.428 479.626 216.549 480.172 215.881 479.868C215.213 479.565 215.031 478.533 215.487 477.562C215.942 476.591 216.822 476.045 217.489 476.349C218.157 476.652 218.308 477.684 217.884 478.655Z" fill="#F7A491"/>
<path d="M211.815 481.901C211.815 481.962 212.24 484.723 212.453 486.149C212.544 486.695 212.24 487.211 211.724 487.393C210.359 487.909 207.689 488.546 206.02 486.786C205.868 486.635 205.808 486.392 205.808 486.179L206.505 479.777L211.815 481.901Z" fill="#F7A491"/>
<path d="M212.24 484.662C210.783 485.269 206.596 484.753 206.262 482.113L206.505 479.807L211.815 481.901C211.815 481.931 212.118 483.812 212.24 484.662Z" fill="#F48C7F"/>
<path d="M213.181 468.884C213.181 468.884 210.966 468.398 208.872 469.703C206.748 471.008 203.319 476.166 206.202 480.657C209.054 485.148 213.939 482.933 215.638 479.382C217.338 475.832 218.066 470.553 213.181 468.884Z" fill="#F7A491"/>
<path d="M211.815 479.959L208.872 479.777C208.872 479.777 208.872 480.9 210.177 481.021C211.755 481.173 211.815 479.959 211.815 479.959Z" fill="white"/>
<path d="M216.944 471.372C216.944 471.372 214.789 470.219 213.212 470.371C211.603 470.522 206.415 474.315 205.656 473.678C204.898 473.041 205.869 469.703 206.475 469.218C207.082 468.732 209.479 467.276 209.692 467.245C209.904 467.215 212.089 467.245 212.453 467.367C212.817 467.458 215.548 468.762 215.548 468.762L216.944 471.372Z" fill="#13375B"/>
<path d="M185.812 523.744C185.842 523.623 185.964 523.623 186.085 523.592C187.178 523.532 188.27 523.441 189.362 523.259C189.544 523.228 189.726 523.168 189.878 523.107C190.181 522.986 190.485 522.955 190.788 523.046C190.97 523.077 191.122 523.077 191.304 523.077C191.85 523.046 193.428 522.47 194.217 522.318C194.399 522.288 194.551 522.136 194.581 521.954C195.279 518.768 196.766 511.668 196.918 509.331C197.1 506.358 198.738 492.885 198.738 492.885L204.261 494.251C204.261 494.251 202.319 504.203 201.833 509.028C201.469 512.73 198.01 520.71 196.918 523.016C196.402 524.715 195.127 524.806 194.854 524.836C194.672 524.867 194.52 524.958 194.429 525.079C194.247 525.322 194.005 525.534 193.762 525.716C193.58 525.838 193.428 526.02 193.307 526.202C193.094 526.536 192.882 526.9 192.7 527.264C192.579 527.507 192.427 527.598 192.214 527.537C192.002 527.476 191.881 527.325 191.881 527.051C191.881 526.657 192.002 526.293 192.184 525.959C192.366 525.625 192.336 525.443 192.123 525.17C192.002 525.018 191.85 524.867 191.699 524.715C191.517 524.594 191.365 524.503 191.122 524.533C190.728 524.654 190.333 524.745 189.939 524.806L189.605 524.897L189.423 524.927C189.393 524.927 188.816 525.018 188.604 525.018C188.452 525.018 188.179 525.049 187.966 525.049C187.754 525.079 187.329 524.988 187.329 524.988C187.147 524.988 186.965 524.927 186.813 524.806C186.753 524.745 186.692 524.685 186.722 524.594C186.753 524.503 186.813 524.472 186.904 524.442C187.026 524.412 187.724 524.321 187.693 524.29C187.481 524.29 186.844 524.29 186.662 524.29C186.389 524.29 186.146 524.199 185.964 524.017C185.873 523.956 185.782 523.865 185.812 523.744Z" fill="#F7A491"/>
<path d="M195.036 500.986L203.047 504.87C203.047 504.87 204.291 498.984 205.231 495.343C206.051 492.217 202.045 486.634 200.71 487.393C197.767 489.092 195.036 500.986 195.036 500.986Z" fill="#5184CE"/>
<path d="M249.229 490.61L320.534 493.644C320.534 493.644 314.314 514.459 314.162 515.491C314.01 516.523 290.616 529.297 284.73 529.145C278.843 528.993 265.128 524.078 262.185 523.198C259.242 522.318 251.565 516.341 252.02 512.669C252.506 508.998 249.229 490.61 249.229 490.61Z" fill="#F7CC7F"/>
<path d="M269.739 501.17H250.593C250.107 501.17 249.743 500.776 249.743 500.32V498.682C249.743 498.196 250.138 497.832 250.593 497.832H269.739C270.225 497.832 270.589 498.227 270.589 498.682V500.32C270.619 500.776 270.225 501.17 269.739 501.17Z" fill="#EAB054"/>
<path d="M278.023 461.451L287.672 465.426L287.126 463.423L283.515 461.451C283.515 461.451 280.572 460.875 280.268 460.723C280.026 460.571 278.023 461.451 278.023 461.451Z" fill="#F7CC7F"/>
<path opacity="0.6" d="M324.083 486.878L248.651 480.415V485.451C248.651 488.304 250.836 490.67 253.628 490.761L320.442 493.462C321.99 493.523 323.477 492.825 324.357 491.52C325.115 490.428 325.449 488.88 324.083 486.878Z" fill="#C5DDF9"/>
<path opacity="0.7" d="M248.651 480.414V479.716L323.81 486.513L324.083 486.877L248.651 480.414Z" fill="#C5DDF9"/>
<path opacity="0.2" d="M266.038 491.278L272.895 491.581L278.539 482.994L271.863 482.417L266.038 491.278Z" fill="white"/>
<path opacity="0.2" d="M278.235 491.793L283.727 483.419L281.178 483.206L275.625 491.672L278.235 491.793Z" fill="white"/>
<path d="M146.487 490.883L232.63 491.732L233.389 519.041C233.389 519.041 223.315 533.666 222.102 533.514C220.888 533.363 195.157 529.236 192.851 529.388C190.545 529.539 170.367 519.648 169.426 519.83C168.486 520.042 162.175 516.644 162.175 516.644L151.919 509.422L141.754 498.954L146.487 490.883Z" fill="#F7CC7F"/>
<path d="M163.934 499.469H144.788C144.302 499.469 143.938 499.075 143.938 498.62V496.981C143.938 496.496 144.332 496.132 144.788 496.132H163.934C164.419 496.132 164.783 496.526 164.783 496.981V498.62C164.783 499.105 164.389 499.469 163.934 499.469Z" fill="#EAB054"/>
<path d="M176.678 471.069L173.704 471.645C173.704 471.645 173.977 472.768 175.312 472.556C176.89 472.283 176.678 471.069 176.678 471.069Z" fill="white"/>
<path d="M167.423 468.217C167.423 468.217 174.159 465.122 174.827 460.297C175.495 455.473 169.305 460.085 169.305 460.085L166.786 462.482L167.423 468.217Z" fill="#1A1A1A"/>
<path d="M251.109 490.003C251.109 490.003 252.353 490.853 253.931 490.822C253.931 490.822 251.837 491.46 251.777 491.429C251.716 491.369 250.654 490.519 250.684 490.519C250.684 490.458 251.109 490.003 251.109 490.003Z" fill="#F7CC7F"/>
<path d="M257.602 458.81L266.037 459.356C266.037 459.356 264.671 457.08 264.065 457.08C263.458 457.08 259.635 457.08 259.635 457.08L257.602 458.81Z" fill="#F7CC7F"/>
<path d="M550.91 583.647H2.09039C0.935175 583.647 0 582.712 0 581.557C0 580.401 0.935175 579.466 2.09039 579.466H550.91C552.065 579.466 553 580.401 553 581.557C552.982 582.712 552.065 583.647 550.91 583.647Z" fill="#183658"/>
<path d="M476.371 318.107C476.371 167.877 125.136 230.237 125.136 57.4362" stroke="#75BF7A" stroke-width="4.04932" stroke-linecap="round" stroke-linejoin="round" stroke-dasharray="12.15 12.15"/>
<path d="M472.977 314.463C478.923 314.47 484.622 316.835 488.826 321.039C493.03 325.243 495.395 330.942 495.402 336.888C495.409 341.746 493.822 346.473 490.885 350.343C490.885 350.343 490.273 351.148 490.173 351.264L472.977 371.545L455.773 351.254C455.683 351.146 455.07 350.343 455.07 350.343L455.068 350.337C452.131 346.469 450.545 341.744 450.552 336.888C450.559 330.942 452.924 325.243 457.128 321.039C461.332 316.835 467.032 314.47 472.977 314.463ZM472.977 345.042C474.59 345.042 476.167 344.564 477.508 343.668C478.849 342.772 479.894 341.498 480.511 340.008C481.128 338.518 481.29 336.879 480.975 335.297C480.66 333.715 479.884 332.262 478.743 331.122C477.603 329.981 476.15 329.204 474.568 328.89C472.986 328.575 471.347 328.737 469.857 329.354C468.367 329.971 467.093 331.016 466.197 332.357C465.301 333.698 464.823 335.275 464.823 336.888C464.825 339.05 465.685 341.122 467.214 342.651C468.743 344.18 470.815 345.04 472.977 345.042Z" fill="#75BF7A"/>
<path d="M125.546 1.04541C131.491 1.05242 137.191 3.41731 141.395 7.62131C145.599 11.8253 147.964 17.5251 147.971 23.4705C147.978 28.329 146.391 33.0558 143.453 36.9255C143.453 36.9255 142.841 37.7308 142.742 37.847L125.546 58.1274L108.341 37.8368C108.252 37.7288 107.638 36.9255 107.638 36.9255L107.636 36.9194C104.7 33.0513 103.113 28.3268 103.12 23.4705C103.127 17.5251 105.492 11.8253 109.696 7.62131C113.9 3.41731 119.6 1.05242 125.546 1.04541ZM125.546 31.6251C127.158 31.6251 128.735 31.1468 130.076 30.2508C131.417 29.3547 132.462 28.0812 133.079 26.5911C133.697 25.1011 133.858 23.4615 133.543 21.8796C133.229 20.2978 132.452 18.8448 131.312 17.7043C130.171 16.5639 128.718 15.7873 127.136 15.4726C125.555 15.158 123.915 15.3194 122.425 15.9366C120.935 16.5539 119.661 17.599 118.765 18.9401C117.869 20.2811 117.391 21.8577 117.391 23.4705C117.394 25.6324 118.254 27.705 119.782 29.2337C121.311 30.7624 123.384 31.6224 125.546 31.6251Z" fill="#75BF7A"/>
</svg>
